<?xml version="1.0" standalone="no"?> <!DOCTYPE svg PUBLIC "-//W3C//DTD SVG 1.0//EN" "http://www.w3.org/TR/2001/REC-SVG-20010904/DTD/svg10.dtd" > <svg xmlns="http://www.w3.org/2000/svg" width="100%" height="100%">
<defs >
<font id="ITCFranklinGothicStd-Compressed" horiz-adv-x="315" ><font-face
    font-family="ITC Franklin Gothic Std Bk Cp"
    units-per-em="1000"
    panose-1="2 11 5 8 3 5 3 2 2 4"
    ascent="686"
    descent="-314"
    alphabetic="0" />
<missing-glyph horiz-adv-x="500" d="M0 0V700H500V0H0ZM250 395L420 650H80L250 395ZM280 350L450 95V605L280 350ZM80 50H420L250 305L80 50ZM50 605V95L220 350L50 605Z" />
<glyph unicode=" " glyph-name="space" horiz-adv-x="213" />
<glyph unicode="!" glyph-name="exclam" horiz-adv-x="273" d="M92 667H181L157 166H114L92 667ZM94 106H177V0H94V106Z" />
<glyph unicode="&quot;" glyph-name="quotedbl" horiz-adv-x="324" d="M60 667H129L121 409H68L60 667ZM196 667H265L257 409H204L196 667Z" />
<glyph unicode="#" glyph-name="numbersign" horiz-adv-x="426" d="M131 470L162 667H222L191 470H279L310 667H370L338 470H425L416 414H330L306 268H394L385 212H298L264 0H204L238 212H150L116 0H57L90 212H1L9 268H99L122 414H32L41 470H131ZM182 414L159
268H247L270 414H182Z" />
<glyph unicode="$" glyph-name="dollar" horiz-adv-x="426" d="M186 -64V20Q118 27 79 69Q46 103 30 169L92 191Q98 160 108 139T133 106T159 91T186 82V317Q156 329 139 338T100 367T66 415T55 484Q55 571 108 620Q138 648 186 655V721H233V656Q291 647 321 619T373
532L314 510Q302 543 286 563T260 587T233 597V378Q265 365 283 356T326 326T364 276T377 204Q377 115 324 62Q291 29 233 21V-64H186ZM186 393V597Q121 581 121 498Q121 465 134 442T157 411T186 393ZM233 302V81Q311 97 311 187Q311 223 297 248T270 282T233
302Z" />
<glyph unicode="%" glyph-name="percent" horiz-adv-x="545" d="M142 674Q177 674 201 656T236 607T250 551T254 498Q254 486 253 475T250 442T240 402T221 366T189 338T142 327Q105 327 80 348T46 404T33 460T30 504Q30 533 34 559T50 613T84 657T142 674ZM143
624Q118 624 106 598T94 508Q94 430 106 405T143 379Q174 379 182 408T190 508Q190 571 180 597T143 624ZM403 342Q438 342 461 325T496 278T511 222T515 166Q515 154 514 143T511 110T501 70T482 34T450 6T403 -5Q367 -5 342 15T308 68T295 125T291 172Q291 342
403 342ZM404 292Q379 292 367 267T355 177Q355 123 362 93T378 55T403 47Q435 47 443 76T451 176Q451 239 441 265T404 292ZM105 0L390 667H439L154 0H105Z" />
<glyph unicode="&amp;" glyph-name="ampersand" horiz-adv-x="460" d="M389 366L447 349Q434 193 368 95Q392 60 429 60Q439 60 454 65V0Q432 -9 407 -9Q377 -9 362 1T325 41Q272 -12 197 -12Q119 -12 75 44T30 184Q30 316 149 386Q102 477 102 537Q102 589 130
634T220 679Q269 679 304 644T339 536Q339 433 231 365Q317 187 334 157Q374 235 389 366ZM207 416Q225 429 236 438T261 476T275 539Q275 621 225 621Q199 621 184 600T169 545Q169 494 207 416ZM173 334Q155 319 144 308T118 262T103 185Q103 131 128 90T204
49Q250 49 293 92Q220 234 173 334Z" />
<glyph unicode="&apos;" glyph-name="quotesingle" horiz-adv-x="187" d="M59 667H128L120 409H67L59 667Z" />
<glyph unicode="(" glyph-name="parenleft" horiz-adv-x="255" d="M170 667H227Q122 486 122 250Q122 17 227 -167H170Q116 -85 81 23T46 250Q46 472 170 667Z" />
<glyph unicode=")" glyph-name="parenright" horiz-adv-x="255" d="M86 -167H29Q134 21 134 250Q134 483 29 667H86Q210 472 210 250Q210 132 175 24T86 -167Z" />
<glyph unicode="*" glyph-name="asterisk" horiz-adv-x="426" d="M191 529L183 667H242L233 528L328 594L358 541L254 493L359 443L330 390L234 455L242 315H183L191 455L96 390L66 443L171 493L67 541L97 594L191 529Z" />
<glyph unicode="+" glyph-name="plus" horiz-adv-x="426" d="M245 364H389V303H245V158H180V303H37V364H180V509H245V364Z" />
<glyph unicode="," glyph-name="comma" horiz-adv-x="204" d="M60 108H146V0L90 -125H48L95 0H60V108Z" />
<glyph unicode="-" glyph-name="hyphen" horiz-adv-x="239" d="M34 282H204V222H34V282Z" />
<glyph unicode="." glyph-name="period" horiz-adv-x="204" d="M59 108H146V0H59V108Z" />
<glyph unicode="/" glyph-name="slash" horiz-adv-x="392" d="M-5 -167L282 667H342L55 -167H-5Z" />
<glyph unicode="0" glyph-name="zero" horiz-adv-x="426" d="M213 679Q248 679 275 667T320 634T347 594T366 552Q396 466 396 329Q396 296 394 266T387 193T368 117T336 53T285 5T213 -12Q30 -12 30 333Q30 509 74 594T213 679ZM206 618Q174 618 153 598T123
538T110 457T107 355Q107 178 133 115Q161 49 215 49Q319 49 319 305Q319 483 289 553Q262 618 206 618Z" />
<glyph unicode="1" glyph-name="one" horiz-adv-x="426" d="M263 674V59H363V0H82V59H188V563Q152 508 77 466V541Q153 583 209 674H263Z" />
<glyph unicode="2" glyph-name="two" horiz-adv-x="426" d="M117 70H379V0H36V70Q181 209 241 302T302 481Q302 544 276 579T209 614Q120 614 104 467L36 486Q51 592 104 638Q149 679 215 679Q289 679 334 628T379 489Q379 362 272 228Q194 134 117 70Z" />
<glyph unicode="3" glyph-name="three" horiz-adv-x="426" d="M148 316V378H198Q211 378 220 379T246 385T274 402T293 435T302 489Q302 618 211 618Q189 618 171 609T143 590T125 561T115 533T109 509L48 527Q55 571 73 602T116 649T165 672T217 679Q296 679
336 625T377 500Q377 382 283 352Q333 337 358 305Q396 260 396 185Q396 131 378 91T329 29T268 -2T205 -12Q126 -12 77 38Q41 74 30 149L95 169Q98 152 100 141T111 111T130 80T163 59T211 49Q242 49 264 62T297 96T314 138T319 182Q319 237 289 276T195 316H148Z"
/>
<glyph unicode="4" glyph-name="four" horiz-adv-x="426" d="M258 162H28V223L239 679H330V223H402V162H330V0H258V162ZM97 223H258L262 612L97 223Z" />
<glyph unicode="5" glyph-name="five" horiz-adv-x="426" d="M111 293L56 306L70 667H356L351 598H132L124 384Q156 448 230 448Q279 448 312 425T361 363T382 292T388 223Q388 100 331 40Q281 -12 204 -12Q166 -12 136 0T90 29T61 70T44 109T35 144L97 164Q102
143 107 130T124 95T157 61T206 49Q311 49 311 218Q311 382 216 382Q193 382 176 376T146 354T128 327T111 293Z" />
<glyph unicode="6" glyph-name="six" horiz-adv-x="426" d="M389 543L324 522Q318 544 312 557T296 585T271 607T235 614Q165 614 138 526Q115 448 111 333Q116 347 119 355T133 380T156 408T189 426T236 435Q305 435 350 379T396 218Q396 102 346 45T223 -12Q181
-12 149 5T97 52T66 115T48 188T41 255T39 312Q39 355 42 396T57 491T89 585T147 651T235 679Q267 679 293 668T335 642T362 606T379 572T389 543ZM227 374Q191 374 167 348T134 286T125 210Q125 149 149 102T227 54Q322 54 322 214T227 374Z" />
<glyph unicode="7" glyph-name="seven" horiz-adv-x="426" d="M55 597L61 667H378V617Q348 566 331 532T285 423T238 260Q207 123 211 0H133Q132 149 181 319T311 597H55Z" />
<glyph unicode="8" glyph-name="eight" horiz-adv-x="426" d="M276 354Q297 344 312 334T351 303T387 249T400 173Q400 142 391 112T361 53T303 6T212 -12Q123 -12 75 38T26 167Q26 206 36 236T68 289T105 321T147 348Q109 367 89 392Q51 439 51 506Q51 576 95
627T219 679Q290 679 334 634T378 514Q378 477 368 448T338 400T307 372T276 354ZM215 383Q264 407 288 435T313 513Q313 564 290 591Q266 621 217 621T146 590T123 512Q123 421 215 383ZM206 314Q101 277 101 172Q101 118 130 84T214 49Q262 49 295 79T328 167Q328
194 320 216T300 252T270 279T239 299T206 314Z" />
<glyph unicode="9" glyph-name="nine" horiz-adv-x="426" d="M39 119L102 139Q105 124 108 115T121 89T148 64T191 55Q265 55 291 152Q311 231 311 332Q303 312 296 300T275 270T238 243T187 234Q111 234 70 299T29 453Q29 488 37 523T64 596T120 656T207 679Q383
679 383 362Q383 -12 188 -12Q153 -12 126 -2T85 22T60 56T46 89T39 119ZM201 612Q152 612 128 567T103 454Q103 440 104 427T110 388T124 345T153 313T199 299Q243 299 271 340T300 455Q300 472 299 489T291 529T275 570T246 599T201 612Z" />
<glyph unicode=":" glyph-name="colon" horiz-adv-x="204" d="M59 108H146V0H59V108ZM59 493H146V385H59V493Z" />
<glyph unicode=";" glyph-name="semicolon" horiz-adv-x="204" d="M60 108H146V0L90 -125H48L95 0H60V108ZM60 493H147V385H60V493Z" />
<glyph unicode="&lt;" glyph-name="less" horiz-adv-x="426" d="M396 569V499L105 336L396 174V104L30 306V367L396 569Z" />
<glyph unicode="=" glyph-name="equal" horiz-adv-x="426" d="M389 361H37V422H389V361ZM389 245H37V306H389V245Z" />
<glyph unicode="&gt;" glyph-name="greater" horiz-adv-x="426" d="M30 104V174L321 336L30 499V569L396 367V306L30 104Z" />
<glyph unicode="?" glyph-name="question" horiz-adv-x="409" d="M216 166H148V199Q148 260 160 289T219 364Q256 402 270 431T285 502Q285 558 261 588T200 618Q176 618 158 607T131 582T114 544T105 506T100 468L35 484Q54 679 204 679Q280 679 321 629T362
505Q362 449 340 407T273 322Q238 290 227 267T216 202V166ZM140 106H223V0H140V106Z" />
<glyph unicode="@" glyph-name="at" horiz-adv-x="562" d="M365 506H416L386 298Q379 235 379 227Q379 211 386 202T404 193Q424 193 438 216T458 273T466 333T469 380Q469 501 420 567T297 633Q203 633 148 543T93 326Q93 197 152 116T310 34Q379 34 440 71L459
28Q379 -14 306 -14Q184 -14 108 75T32 323Q32 420 60 499T151 629T299 680Q408 680 466 597T525 389Q525 328 513 273T472 178T401 137Q351 137 334 195Q317 134 260 134Q231 134 210 150T180 192T166 243T162 294Q162 382 195 448T287 514Q306 514 319 507T340
488T350 466T356 444L365 506ZM291 455Q273 455 260 437T242 398T233 347T229 307T228 287Q228 193 267 193Q292 193 307 228Q329 287 329 377Q329 455 291 455Z" />
<glyph unicode="A" glyph-name="A" horiz-adv-x="375" d="M149 667H228L378 0H300L258 193H109L68 0H-4L149 667ZM122 255H246L185 588L122 255Z" />
<glyph unicode="B" glyph-name="B" horiz-adv-x="426" d="M64 0V667H203Q264 667 297 654T350 613Q384 568 384 500Q384 426 350 385Q336 369 301 355Q406 319 406 184Q406 133 389 89T338 23Q303 0 211 0H64ZM140 602V380H202Q259 380 284 404T309 491Q309 523
301 545T281 578T252 595T224 601T198 602H140ZM140 318V65H212Q239 65 256 69T292 85T320 124T329 195T317 265T282 303T245 315T208 318H140Z" />
<glyph unicode="C" glyph-name="C" horiz-adv-x="409" d="M402 494L333 478Q329 501 327 514T317 549T300 583T275 604T237 614Q169 614 142 521Q121 441 121 326Q121 146 173 81Q195 53 235 53Q261 53 278 63T307 96T322 135T333 183L402 171Q394 131 384 102T355
45T306 3T233 -12Q160 -12 119 31Q41 114 41 322Q41 535 120 629Q162 679 234 679Q271 679 299 667T345 637T374 592T392 544T402 494Z" />
<glyph unicode="D" glyph-name="D" horiz-adv-x="477" d="M64 0V667H174Q288 667 344 617Q386 581 411 504T436 339Q436 249 411 172T347 56Q294 0 185 0H64ZM140 602V65H192Q269 65 306 118Q356 192 356 335Q356 444 326 515Q288 602 187 602H140Z" />
<glyph unicode="E" glyph-name="E" horiz-adv-x="375" d="M140 602V379H317V314H140V65H375V0H64V667H369V602H140Z" />
<glyph unicode="F" glyph-name="F" horiz-adv-x="341" d="M140 602V376H319V311H140V0H64V667H359V602H140Z" />
<glyph unicode="G" glyph-name="G" horiz-adv-x="460" d="M425 331V-9H377L363 74Q323 -12 232 -12Q172 -12 132 17T73 100T48 206T41 328Q41 575 143 646Q190 679 248 679Q294 679 326 663T377 618T403 563T418 504L353 481Q347 509 342 526T326 566T294 602T245
614Q205 614 180 591T142 522T125 430T121 317Q121 48 242 48Q316 48 344 136Q356 171 356 266H246V331H425Z" />
<glyph unicode="H" glyph-name="H" horiz-adv-x="477" d="M140 384H337V667H413V0H337V319H140V0H64V667H140V384Z" />
<glyph unicode="I" glyph-name="I" horiz-adv-x="204" d="M64 0V667H140V0H64Z" />
<glyph unicode="J" glyph-name="J" horiz-adv-x="272" d="M144 667H220V225Q219 130 214 96T187 34Q151 -12 82 -12Q37 -12 4 0V60Q32 53 62 53Q117 53 130 84T144 222V667Z" />
<glyph unicode="K" glyph-name="K" horiz-adv-x="426" d="M444 0H358L218 350L140 221V0H64V667H140V332L326 667H408L263 424L444 0Z" />
<glyph unicode="L" glyph-name="L" horiz-adv-x="341" d="M64 0V667H140V65H348V0H64Z" />
<glyph unicode="M" glyph-name="M" horiz-adv-x="596" d="M64 0V667H165L298 125L433 667H532V0H458L464 569L323 0H266L126 572L132 0H64Z" />
<glyph unicode="N" glyph-name="N" horiz-adv-x="494" d="M64 0V667H155L366 145L362 667H430V0H356L128 571L132 0H64Z" />
<glyph unicode="O" glyph-name="O" horiz-adv-x="477" d="M238 679Q436 679 436 338Q436 162 377 64Q330 -12 239 -12Q139 -12 90 71T41 329Q41 396 49 453T78 563T139 648T238 679ZM238 614Q120 614 120 344Q120 183 150 118T238 53Q302 53 329 123T356 333Q356
476 329 545T238 614Z" />
<glyph unicode="P" glyph-name="P" horiz-adv-x="392" d="M64 0V667H193Q249 667 284 656T345 613Q389 557 389 467Q389 380 345 326T205 271H140V0H64ZM140 602V336H202Q255 336 283 363T312 467Q312 505 303 532T283 573T253 593T224 601T198 602H140Z" />
<glyph unicode="Q" glyph-name="Q" horiz-adv-x="477" d="M398 -82V-145Q368 -157 337 -157Q304 -157 280 -146T245 -122T228 -85T220 -48T219 -12Q163 -4 128 23Q41 94 41 329Q41 679 239 679Q436 679 436 337Q436 291 431 247T413 147T369 50T291 -6Q290 -12
290 -23Q290 -57 301 -76T346 -95Q365 -95 398 -82ZM238 614Q120 614 120 343Q120 182 150 117T238 52Q302 52 329 122T356 333Q356 476 329 545T238 614Z" />
<glyph unicode="R" glyph-name="R" horiz-adv-x="426" d="M64 0V667H212Q240 667 255 666T294 658T335 638T368 599Q399 550 399 481Q399 405 368 356Q346 322 307 307L414 0H333L235 292H140V0H64ZM140 602V357H213Q266 357 293 386Q322 418 322 480Q322 540
290 576Q268 602 209 602H140Z" />
<glyph unicode="S" glyph-name="S" horiz-adv-x="409" d="M379 517L310 500Q285 614 202 614Q153 614 132 579T110 504Q110 456 136 433T250 366Q322 331 355 292T389 177Q389 83 334 36T208 -12Q121 -12 70 42Q30 86 14 168L85 186Q93 130 121 95Q152 53 209
53Q261 53 286 87T312 172Q312 224 290 249T218 299Q161 327 137 340T84 378T47 430T37 499Q37 580 84 629T204 679Q243 679 273 665T321 635T352 591T370 551T379 517Z" />
<glyph unicode="T" glyph-name="T" horiz-adv-x="324" d="M124 0V602H-5V667H329V602H200V0H124Z" />
<glyph unicode="U" glyph-name="U" horiz-adv-x="443" d="M52 667H128V202Q128 172 129 155T134 116T148 82T176 62T220 53Q275 53 296 85T318 198V667H391V202Q391 176 390 161T385 116T370 67T340 28T291 -2T219 -12Q171 -12 138 2T89 33T64 84T54 140T52 201V667Z" />
<glyph unicode="V" glyph-name="V" horiz-adv-x="375" d="M147 0L-5 667H76L190 100L303 667H380L229 0H147Z" />
<glyph unicode="W" glyph-name="W" horiz-adv-x="579" d="M124 0L6 667H82L166 139L261 667H324L428 139L506 667H574L463 0H388L291 513L196 0H124Z" />
<glyph unicode="X" glyph-name="X" horiz-adv-x="375" d="M146 348L18 667H100L189 427L282 667H356L226 360L374 0H288L182 277L75 0H0L146 348Z" />
<glyph unicode="Y" glyph-name="Y" horiz-adv-x="358" d="M141 0V282L-11 667H68L184 358L298 667H369L217 282V0H141Z" />
<glyph unicode="Z" glyph-name="Z" horiz-adv-x="375" d="M99 68H357V0H18V68L266 602H30V667H351V614L99 68Z" />
<glyph unicode="[" glyph-name="bracketleft" horiz-adv-x="273" d="M166 615V-115H227V-167H96V667H227V615H166Z" />
<glyph unicode="\" glyph-name="backslash" horiz-adv-x="392" d="M386 -167H326L39 667H99L386 -167Z" />
<glyph unicode="]" glyph-name="bracketright" horiz-adv-x="273" d="M107 615H46V667H177V-167H46V-115H107V615Z" />
<glyph unicode="^" glyph-name="asciicircum" horiz-adv-x="426" d="M256 667L436 298H359L213 597L67 298H-10L179 667H256Z" />
<glyph unicode="_" glyph-name="underscore" horiz-adv-x="500" d="M0 -125V-75H500V-125H0Z" />
<glyph unicode="`" glyph-name="grave" horiz-adv-x="460" d="M109 654L154 710L290 582L262 550L109 654Z" />
<glyph unicode="a" glyph-name="a" horiz-adv-x="392" d="M347 0H285Q275 31 275 72Q265 47 256 33T223 3T163 -12Q93 -12 64 32T34 134Q34 190 60 232T135 291Q183 307 269 304Q269 338 269 352T265 390T254 422T232 440T195 448Q153 448 136 425T110 355L47
372Q52 396 59 412T82 453T128 491T201 505Q273 505 311 464Q329 445 334 412T340 313V114Q340 38 347 0ZM269 250Q246 250 224 250T180 245T143 227T118 192T108 133Q108 47 173 47Q222 47 245 93Q269 139 269 250Z" />
<glyph unicode="b" glyph-name="b" horiz-adv-x="409" d="M59 0V667H128V423Q159 502 230 502Q375 502 375 252Q375 103 321 38Q283 -9 220 -9Q142 -9 113 60L96 0H59ZM128 273V188Q128 111 152 79Q175 47 208 47Q299 47 299 250Q299 350 281 396T216 443Q180
443 154 406T128 273Z" />
<glyph unicode="c" glyph-name="c" horiz-adv-x="358" d="M338 345L273 333Q268 366 263 386T239 426T192 446Q147 446 129 401T110 246Q110 196 113 163T124 102T149 60T192 47Q227 47 246 73T273 160L338 152Q334 126 330 108T315 65T290 25T251 -1T193 -12Q145
-12 113 8T64 66T41 143T34 235Q34 505 193 505Q319 505 338 345Z" />
<glyph unicode="d" glyph-name="d" horiz-adv-x="409" d="M350 667V0H290V64Q257 -9 181 -9Q134 -9 103 16T58 85T39 163T34 237Q34 374 78 438T188 502Q218 502 239 488T267 464T281 437V667H350ZM281 181V314Q281 361 262 402T196 443Q110 443 110 252Q110 139
133 91Q155 47 198 47Q237 47 260 82Q281 111 281 181Z" />
<glyph unicode="e" glyph-name="e" horiz-adv-x="375" d="M356 238H107Q107 47 205 47Q226 47 242 56T267 84T281 115T290 146L351 130Q334 61 301 25T199 -12Q34 -12 34 240Q34 290 42 334T67 418T118 481T198 505Q230 505 256 494T298 466T326 424T343 377T352
325T355 278T356 238ZM109 295H280Q279 316 279 326T276 358T268 392T254 418T231 439T197 446Q170 446 152 431T125 388T114 341T109 295Z" />
<glyph unicode="f" glyph-name="f" horiz-adv-x="204" d="M64 0V436H2V493H64V533Q64 558 65 572T71 610T88 646T121 669T176 679Q182 679 229 674V614Q201 620 188 620Q169 620 157 613T140 590T134 564T133 533V493H210V436H133V0H64Z" />
<glyph unicode="g" glyph-name="g" horiz-adv-x="358" d="M358 568V506Q323 508 310 497T294 448Q313 422 320 392Q328 365 328 330Q328 256 289 211T184 166Q157 166 137 175Q102 162 102 128Q102 96 129 87T239 72Q368 61 368 -46Q368 -88 352 -117T307 -161T250
-182T189 -189Q108 -189 66 -154T24 -65Q24 1 88 37Q38 67 38 120Q38 174 96 205Q47 257 47 337Q47 411 85 458T186 505Q224 505 254 485Q255 502 257 512T269 540T301 564T358 568ZM188 446Q118 446 118 334Q118 225 188 225Q255 225 255 337Q255 446 188 446ZM129
18Q94 -6 94 -49Q94 -90 121 -110T196 -130Q208 -130 219 -129T251 -121T285 -96T298 -51Q298 -6 248 6Q238 9 129 18Z" />
<glyph unicode="h" glyph-name="h" horiz-adv-x="392" d="M59 0V667H128V426Q133 441 138 451T155 475T184 497T228 505Q290 505 320 453Q339 421 339 307V0H270V307Q270 378 257 409T206 441Q163 441 143 392Q129 359 129 251V0H59Z" />
<glyph unicode="i" glyph-name="i" horiz-adv-x="187" d="M59 0V493H128V0H59ZM56 667H131V582H56V667Z" />
<glyph unicode="j" glyph-name="j" horiz-adv-x="187" d="M59 493H128V-17Q128 -111 106 -142T10 -174H-28V-110H6Q41 -110 50 -94T59 -14V493ZM56 667H131V582H56V667Z" />
<glyph unicode="k" glyph-name="k" horiz-adv-x="358" d="M59 0V667H128V251L264 493H338L229 311L353 0H271L185 241L128 152V0H59Z" />
<glyph unicode="l" glyph-name="l" horiz-adv-x="187" d="M59 0V667H128V0H59Z" />
<glyph unicode="m" glyph-name="m" horiz-adv-x="596" d="M59 0V493H122V414Q128 431 132 440T149 468T181 495T229 505Q309 505 325 408Q350 505 432 505Q490 505 521 458Q544 423 544 325V0H475V322Q475 387 460 414T412 441Q390 441 375 428T353 399T341 354T337
310T336 269V0H267V309Q267 342 266 361T259 401T241 431T208 441Q176 441 157 418T133 369T128 314V0H59Z" />
<glyph unicode="n" glyph-name="n" horiz-adv-x="392" d="M59 0V493H122V418Q158 505 231 505Q296 505 322 454Q339 424 339 313V0H270V313Q270 344 269 360T263 399T244 431T208 441Q128 441 128 284V0H59Z" />
<glyph unicode="o" glyph-name="o" horiz-adv-x="392" d="M196 505Q247 505 281 478T331 406T352 323T358 242Q358 -12 195 -12Q34 -12 34 244Q34 281 39 317T59 400T109 476T196 505ZM196 446Q156 446 135 407Q110 360 110 244Q110 137 131 92T196 47Q237 47
259 88T282 235Q282 351 262 398T196 446Z" />
<glyph unicode="p" glyph-name="p" horiz-adv-x="409" d="M59 -167V493H123V413Q128 429 133 439T150 466T182 492T230 502Q270 502 299 480T343 428T365 358T374 295T375 249Q375 203 369 163T349 82T303 16T227 -9Q197 -9 175 3T145 24T128 50V-167H59ZM128
286V196Q128 50 212 50Q258 50 278 92T299 244Q299 358 277 400T215 443Q186 443 167 425T140 378T131 328T128 286Z" />
<glyph unicode="q" glyph-name="q" horiz-adv-x="409" d="M350 499V-167H281V57Q248 -9 183 -9Q145 -9 116 9T72 54T48 117T37 182T34 242Q34 372 79 437T191 502Q267 502 294 428L313 499H350ZM281 183V334Q281 392 255 417T199 443Q110 443 110 247Q110 50 198
50Q210 50 222 55T248 72T272 113T281 183Z" />
<glyph unicode="r" glyph-name="r" horiz-adv-x="238" d="M59 0V493H122V395Q152 503 225 503Q237 503 246 500V423Q218 426 197 420T163 398T143 366T132 323T129 279T128 232V0H59Z" />
<glyph unicode="s" glyph-name="s" horiz-adv-x="324" d="M301 381L242 366Q237 383 233 394T220 418T197 439T164 446Q133 446 115 428T96 378Q96 354 107 337T132 311T173 288Q258 244 284 218T311 134Q311 65 272 27T167 -12Q129 -12 100 0T56 26T31 64T17
98T12 126L73 142Q77 122 80 112T93 83T121 56T166 47Q200 47 220 67T240 123Q240 162 221 180T139 229Q84 257 56 288T28 371Q28 422 60 463T163 505Q202 505 229 492T271 455T291 417T301 381Z" />
<glyph unicode="t" glyph-name="t" horiz-adv-x="238" d="M9 436V493H65V617L134 625V493H218V436H134V168Q134 105 144 85T194 65Q208 65 231 68V8Q208 -2 172 -2Q142 -2 122 7T90 29T73 67T66 112T65 168V436H9Z" />
<glyph unicode="u" glyph-name="u" horiz-adv-x="392" d="M333 493V0H270V59Q260 40 251 28T218 2T162 -12Q95 -12 68 34Q52 63 52 162V493H121V158Q121 132 122 119T128 87T147 60T183 51Q264 51 264 176V493H333Z" />
<glyph unicode="v" glyph-name="v" horiz-adv-x="307" d="M116 0L0 493H72L157 86L239 493H307L191 0H116Z" />
<glyph unicode="w" glyph-name="w" horiz-adv-x="460" d="M103 0L2 493H72L136 125L202 493H262L332 125L398 493H458L359 0H299L229 365L165 0H103Z" />
<glyph unicode="x" glyph-name="x" horiz-adv-x="307" d="M117 261L14 493H89L156 322L219 493H287L189 261L304 0H231L151 198L72 0H2L117 261Z" />
<glyph unicode="y" glyph-name="y" horiz-adv-x="290" d="M-4 493H67L147 153L232 493H294L154 -47Q137 -111 113 -144T43 -178Q25 -178 3 -172V-110Q25 -117 38 -117Q59 -117 69 -102T95 -23L113 51L-4 493Z" />
<glyph unicode="z" glyph-name="z" horiz-adv-x="307" d="M38 493H284V453L99 59H284V0H23V57L201 434H38V493Z" />
<glyph unicode="{" glyph-name="braceleft" horiz-adv-x="255" d="M44 220V281Q75 283 82 303T90 379V525Q90 554 92 573T104 616T137 654T196 667Q200 667 206 667T216 666V615Q179 614 169 597T159 528V377Q159 311 151 287T109 250Q143 237 151 215T159 123V-29Q159
-80 169 -97T216 -115V-166Q181 -169 157 -162T120 -142T100 -108T92 -69T90 -25V120Q90 145 90 156T87 182T80 203T67 214T44 220Z" />
<glyph unicode="|" glyph-name="bar" horiz-adv-x="500" d="M215 750H285V-250H215V750Z" />
<glyph unicode="}" glyph-name="braceright" horiz-adv-x="255" d="M213 281V220Q181 217 174 198T167 120V-25Q167 -51 166 -68T157 -107T138 -141T101 -161T41 -166V-115Q78 -114 88 -97T98 -29V123Q98 192 106 214T148 250Q114 262 106 286T98 377V528Q98 579
88 596T41 615V666Q44 666 50 666T61 667Q97 667 120 654T152 617T164 573T167 525V379Q167 340 169 324T181 295T213 281Z" />
<glyph unicode="~" glyph-name="asciitilde" horiz-adv-x="426" d="M15 263L-28 290Q-16 314 -7 329T19 364T58 394T109 404Q145 404 222 369Q290 337 319 337Q351 337 371 354T411 406L454 381Q443 359 436 348T410 314T366 281T311 270Q278 270 171 318Q130
337 104 337Q87 337 72 330T46 309T29 286T15 263Z" />
</font>
</defs>
</svg>
