<?xml version="1.0" encoding="UTF-8" standalone="no"?>
<svg xmlns="http://www.w3.org/2000/svg" xmlns:xlink="http://www.w3.org/1999/xlink" version="1.1"
	width="100%" preserveAspectRatio="xMidYMin meet" stroke="none" stroke-width="1" fill="none" fill-rule="evenodd">
	<title>Browser Mockup: Generic</title>
	<script><![CDATA[
		function getParams() {
			return location.search.substr(1).split('&').reduce(function(store, val) {
				val = val.split('=');
				store[val[0]] = val[1];
				return store;
			}, {});
		}
		function setStyle(style, value, query) {
			var i, ii, el, els;
			els = document.querySelectorAll(query);
			for (i = 0, ii = els.length; i < ii; i++) {
				el = els.item(i).style[style] = value;
			}
		}
		function onSVGLoad(ev) {
			var params = getParams();
			fg = (params.fg == "none")? "none": "#" + params.fg;
			bg = (params.bg == "none")? "none": "#" + params.bg;
			setStyle("stroke", fg, ".input-chrome, .button-chrome, .separator-line, #window-ctl-group"); // fg as stroke
			setStyle("fill", fg, ".ui-text, .input-text, .icon-filled"); // fg as fill
			setStyle("stroke", bg, ".window-chrome"); // bg as stroke
			setStyle("fill", bg, ".window-chrome, .input-chrome, .button-chrome, #window-ctl-group"); // bg as fill
			document.getElementById("title-text").textContent = "Params (fg:"+fg+", bg:"+bg+ ")";
		}
		document.rootElement.addEventListener("SVGLoad", onSVGLoad);
	]]></script>
	<defs>
		<style type="text/css"><![CDATA[
			
			/* fg color #979797 */
			.input-chrome, .button-chrome, .separator-line, #window-ctl-group { stroke: #979797 }
			.ui-text, .input-text, .icon-filled { fill: #979797 }
			
			/* bg color #F6F6F6 */
			.window-chrome { stroke: #F6F6F6 }
			.window-chrome, #window-ctl-group { fill: #F6F6F6 }
			.input-chrome, .button-chrome { fill: #FFFFFF }
			
			/* opacity */
			.input-chrome, .button-chrome, .separator-line { stroke-opacity: 0.5 }
			#window-ctl-group { stroke-opacity: 0.6 }
			#domain-text { stroke-opacity: 1 }
			#address-text, #title-text { stroke-opacity: 0.8 }
			
			/* text */
			.input-text, .ui-text {
				font-family: 'Lucida Grande', 'Lucida Sans', 'Apple SD Gothic Neo', Verdana, sans-serif;
				font-weight: normal;
				font-size: 11px;
			}
		]]></style>
	</defs>
	<clipPath id="window-mask-left">
		<rect x="0" width="85.1%" height="400%"/>
	</clipPath>
	<g clip-path="url(#window-mask-left)">
		<svg id="left_items" viewBox="0 0 2000 50" preserveAspectRatio="xMinYMin slice" buffered-rendering="static">
			<rect class="window-chrome" x="0%" y="0" width="100%" height="54" rx="4" transform="translate(0.5 0.5)"/>
			<g id="window-ctl-group" transform="translate(16, 13)">
				<circle id="window-ctl-close" cx="0" cy="0" r="5.5"/>
				<circle id="window-ctl-minimize" cx="20" cy="0" r="5.5"/>
				<circle id="window-ctl-expand" cx="40" cy="0" r="5.5"/>
			</g>
			<g id="navigate-group" transform="translate(9.5, 25.5)">
				<rect x="0" y="0" width="50" height="20" rx="4" class="button-chrome"/>
				<g transform="translate(25, 10)" class="separator-line">
					<polyline points="0 -8 0 8 " transform="matrix(1 0 0 1 0 0)"/>
				</g>
				<g id="fwd-icon" transform="translate(38, 10)" class="icon-filled">
					<polygon points="-4.5 -4.5 4.0 0.0 -4.5 4.5 " transform="matrix(.8 0 0 .8 0 0)"/>
				</g>
				<g id="bck-icon" transform="translate(12, 10)" class="icon-filled">
					<polygon points="4.5 -4.5 -4.0 0.0 4.5 4.5 " transform="matrix(.8 0 0 .8 0 0)"/>
				</g>
			</g>
			<rect class="input-chrome" x="71.5" y="25.5" width="100%" height="20" rx="4"/>
			<g id="bookmark-separator" class="separator-line" transform="translate(82, 26)">
				<path d="M19.5,0 L19.5,19"/>
			</g>
			<g id="bookmark-icon" class="icon-filled" transform="translate(82, 26)">
				<path d="M4,9 L4,5 L6,5 L6,9 L10,9 L10,11 L6,11 L6,15 L4,15 L4,11 L0,11 L0,9 L4,9 L4,9 Z" id="bookmark-path"/>
			</g>
			<text id="address-text" class="input-text" x="110" y="40">http://<tspan id="domain-text">domain.com</tspan>/</text>
		</svg>
	</g>
	<clipPath id="window-mask-right">
		<rect x="85%" width="15%" height="400%"/>
	</clipPath>
	<g clip-path="url(#window-mask-right)">
		<svg id="right_items" viewBox="-2000 0 2000 50" preserveAspectRatio="xMaxYMin slice" buffered-rendering="static">
			<rect class="window-chrome" x="-100%" y="0" width="100%" height="54" rx="4" transform="translate(-0.5 0.5)"/>
			<rect class="input-chrome" x="-100%" y="25.5" width="100%" height="20" rx="4" transform="matrix(1 0 0 1 -12.5 0)"/>
			<g id="full-screen-icon" class="icon-filled" fill-opacity="0.6" transform="translate(-19 6)" onclick="applyLocationParams(evt)">
				<path d="M2.33076133,8.83076116 L3.90012133,7.26140437 C4.24090333,6.92061751 4.786912,6.92278167 5.125016,7.26088289 L5.73911867,7.87498773 C6.08003067,8.21590042 6.07698867,8.76149283 5.73859867,9.09988205 L4.16923867,10.6692388 L6.5,13 L0,13 L0,6.5 L2.33076133,8.83076116 L2.33076133,8.83076116 Z"/>
				<path d="M10.6692387,4.16923881 L9.09987867,5.73859563 C8.75909667,6.07938249 8.213088,6.07721833 7.874984,5.73911711 L7.26088133,5.12501231 C6.91996933,4.78409958 6.92301133,4.23850721 7.26140133,3.90011797 L8.83076133,2.33076119 L6.5,0 L13,0 L13,6.5 L10.6692387,4.16923881 L10.6692387,4.16923881 Z"/>
			</g>
			<g id="reload-icon" class="icon-filled" transform="translate(-27 30)" fill-opacity="0.6">
				<path transform="matrix(.95 0 0 .95 -0.5 -0.5)" d="M5,2 C2.23858,2 0,4.23857611 0,7 C0,9.7614239 2.23858,12 5,12 C7.76142,12 10,9.7614239 10,7 L8,7 C8,8.6568543 6.65685,10 5,10 C3.34315,10 2,8.6568543 2,7 C2,5.34314567 3.34315,4 5,4 L5,6 L10,3 L5,0 L5,2 L5,2 Z"/>
			</g>
		</svg>
	</g>
	<svg viewBox="-1000 0 2000 50" preserveAspectRatio="xMidYMin slice" buffered-rendering="static">
		<text id="title-text" class="ui-text" x="0" y="18" text-anchor="middle">Window Title</text>
	</svg>
</svg>
