<?xml version="1.0" standalone="no"?> <!DOCTYPE svg PUBLIC "-//W3C//DTD SVG 1.0//EN" "http://www.w3.org/TR/2001/REC-SVG-20010904/DTD/svg10.dtd" > <svg xmlns="http://www.w3.org/2000/svg" width="100%" height="100%">
<defs >
<font id="ITCFranklinGothicStd-Compressed" horiz-adv-x="333" ><font-face
    font-family="ITC Franklin Gothic Std Bk Cp"
    units-per-em="1000"
    panose-1="2 11 8 8 3 5 2 9 2 4"
    ascent="686"
    descent="-314"
    alphabetic="0" />
<missing-glyph horiz-adv-x="566" d="M66 0V700H566V0H66ZM316 395L486 650H146L316 395ZM346 350L516 95V605L346 350ZM146 50H486L316 305L146 50ZM116 605V95L286 350L116 605Z" />
<glyph unicode=" " glyph-name="space" horiz-adv-x="221" />
<glyph unicode="!" glyph-name="exclam" horiz-adv-x="306" d="M147 667H298L183 202H108L147 667ZM74 149H200L174 0H48L74 149Z" />
<glyph unicode="&quot;" glyph-name="quotedbl" horiz-adv-x="357" d="M157 377H83L121 666H226L157 377ZM311 377H237L275 666H380L311 377Z" />
<glyph unicode="#" glyph-name="numbersign" horiz-adv-x="460" d="M144 0H54L98 204H29L46 285H115L137 393H69L86 474H155L196 667H285L245 474H304L345 667H434L393 474H460L443 393H376L353 285H420L403 204H336L293 0H202L247 204H187L144 0ZM289 393H224L201
285H266L289 393Z" />
<glyph unicode="$" glyph-name="dollar" horiz-adv-x="460" d="M274 735H345L330 649Q374 636 402 600Q429 567 443 512L347 473Q342 511 322 533T270 555Q239 555 218 534T196 482Q196 459 210 442T259 408L297 386Q349 354 359 345Q392 316 406 285T420 208Q420
152 397 106T333 34Q290 6 223 4L206 -91H136L154 12Q38 37 23 195L127 226Q136 163 155 137Q177 107 218 107Q251 107 272 129T294 187Q294 213 280 231T225 271L176 300Q78 355 78 455Q78 541 127 595T260 655L274 735Z" />
<glyph unicode="%" glyph-name="percent" horiz-adv-x="578" d="M215 679Q311 676 311 553Q311 457 271 396T168 335Q120 335 93 369T65 463Q65 558 106 618T211 679H215ZM203 605Q181 604 166 560T150 458Q150 408 173 408Q195 408 211 453T227 561Q227 605 205
605H203ZM445 331Q541 328 541 205Q541 109 501 48T398 -13Q350 -13 323 21T295 115Q295 210 336 270T441 331H445ZM433 258Q411 256 395 212T379 110Q379 62 402 62Q424 62 440 107T456 213Q456 258 435 258H433ZM473 667H538L134 0H69L473 667Z" />
<glyph unicode="&amp;" glyph-name="ampersand" horiz-adv-x="562" d="M444 382L541 362Q521 285 496 238Q469 186 426 141Q446 113 468 113Q479 113 502 123L482 5Q458 -6 432 -6Q393 -6 367 14Q358 21 335 46Q304 21 289 13Q243 -13 189 -13Q113 -13 68 36T23
168Q23 242 59 291T171 378Q144 451 144 500Q144 579 192 629T317 679Q382 679 421 638T460 530Q460 494 440 451Q423 416 397 392T319 339Q341 280 373 222Q401 265 417 302Q432 339 444 382ZM264 512Q264 467 281 425Q347 461 347 524Q347 583 307 583Q264 583
264 512ZM150 179Q150 143 169 122T221 101Q250 101 286 127Q252 186 209 286Q150 247 150 179Z" />
<glyph unicode="&apos;" glyph-name="quotesingle" horiz-adv-x="204" d="M86 378L124 667H229L160 378H86Z" />
<glyph unicode="(" glyph-name="parenleft" horiz-adv-x="306" d="M247 667H342Q289 606 265 564T208 433Q152 283 152 121Q152 53 161 -10Q171 -78 202 -167H117Q102 -139 98 -128Q33 15 33 182Q33 363 137 529Q167 578 187 603T247 667Z" />
<glyph unicode=")" glyph-name="parenright" horiz-adv-x="306" d="M60 -167H-36Q18 -106 42 -64T98 66Q155 219 155 378Q155 442 144 510Q134 585 104 667H190Q198 653 209 627Q273 488 273 318Q273 138 169 -29Q139 -79 119 -104T60 -167Z" />
<glyph unicode="*" glyph-name="asterisk" horiz-adv-x="460" d="M258 673L338 660L308 545L408 594L433 516L329 488L420 424L372 359L292 441L284 321L205 334L234 450L134 400L109 478L213 507L123 570L171 636L250 554L258 673Z" />
<glyph unicode="+" glyph-name="plus" horiz-adv-x="460" d="M299 386H425V281H299V152H189V281H62V386H189V515H299V386Z" />
<glyph unicode="," glyph-name="comma" horiz-adv-x="221" d="M28 149H160L138 16L38 -154H-19L59 0H3L28 149Z" />
<glyph unicode="-" glyph-name="hyphen" horiz-adv-x="255" d="M46 328H236L217 220H28L46 328Z" />
<glyph unicode="." glyph-name="period" horiz-adv-x="221" d="M28 149H160L135 0H3L28 149Z" />
<glyph unicode="/" glyph-name="slash" horiz-adv-x="357" d="M328 667H408L-6 -173H-85L328 667Z" />
<glyph unicode="0" glyph-name="zero" horiz-adv-x="460" d="M42 216Q42 388 92 521Q151 678 286 678Q438 678 438 456Q438 258 372 113Q345 52 299 19T193 -14Q42 -14 42 216ZM169 161Q169 124 178 108T210 91Q249 91 267 161Q284 227 297 347Q311 470 311 500Q311
574 277 574H275Q246 572 231 542T199 419Q169 256 169 161Z" />
<glyph unicode="1" glyph-name="one" horiz-adv-x="460" d="M380 670L286 113H387L367 0H41L60 113H156L217 479Q164 455 93 455L113 580Q154 581 175 586T222 606Q255 625 279 670H380Z" />
<glyph unicode="2" glyph-name="two" horiz-adv-x="460" d="M385 121L364 0H1L23 132Q78 170 137 228T234 332Q305 419 305 498Q305 561 260 561Q231 561 215 533Q202 510 186 434L63 466Q73 518 80 540T104 591Q155 679 267 679Q348 679 393 632T439 500Q439
394 370 310Q341 274 283 221Q230 171 161 121H385Z" />
<glyph unicode="3" glyph-name="three" horiz-adv-x="460" d="M179 488L72 525Q116 678 269 679Q347 679 389 637T431 518Q431 439 389 391Q375 374 360 365T315 344Q350 327 369 303Q401 262 401 203Q401 161 388 123Q342 -13 198 -13Q99 -13 51 49Q31 75 23
100T9 177L120 204Q132 101 194 101Q226 101 245 129T265 204T244 272T174 293H157L174 397Q179 397 190 397T205 396Q240 396 259 408Q277 419 288 448T300 513Q300 575 253 575Q228 575 211 555T179 488Z" />
<glyph unicode="4" glyph-name="four" horiz-adv-x="460" d="M340 149L315 0H191L216 149H11L30 263L298 670H426L358 262H421L403 149H340ZM235 256L281 503L120 256H235Z" />
<glyph unicode="5" glyph-name="five" horiz-adv-x="460" d="M454 667L428 548H219L185 397Q210 421 229 429T277 438Q341 438 377 390T414 256Q414 133 356 60T200 -13Q105 -13 57 52Q40 75 33 95T21 160L132 190Q141 101 200 101Q278 101 278 252Q278 334 222
334Q199 334 185 321T159 276L64 315L141 667H454Z" />
<glyph unicode="6" glyph-name="six" horiz-adv-x="460" d="M447 493L331 473Q331 528 320 551T284 575Q262 575 247 558T218 500Q207 467 200 439Q196 423 187 362Q211 396 234 409T288 423Q345 423 378 377T412 251Q412 133 358 60T214 -13Q131 -13 88 44T44
211Q44 285 61 377T106 535Q135 604 184 641T298 679Q445 679 447 493ZM237 319Q206 319 189 281T171 174Q171 130 181 111T215 92Q243 92 255 118Q277 166 277 253Q277 319 237 319Z" />
<glyph unicode="7" glyph-name="seven" horiz-adv-x="460" d="M88 546L111 667H460L443 558Q409 517 392 489T341 397Q236 186 223 0H72Q93 107 110 162T166 294Q209 379 260 451Q288 491 336 546H88Z" />
<glyph unicode="8" glyph-name="eight" horiz-adv-x="460" d="M18 142Q18 229 73 286Q94 308 142 336Q86 396 86 474Q86 565 142 622T287 679Q359 679 400 639T442 528Q442 404 335 362Q404 300 404 207Q404 108 345 48T187 -13Q106 -13 62 27T18 142ZM208 499Q208
461 231 435Q244 419 277 401Q328 440 328 516Q328 551 315 570T276 590Q246 590 227 565T208 499ZM132 169Q132 126 152 102T207 77Q241 77 261 103T282 174Q282 210 265 234T200 287Q132 246 132 169Z" />
<glyph unicode="9" glyph-name="nine" horiz-adv-x="460" d="M20 132L122 178Q135 92 187 92Q219 92 237 118Q263 156 284 299Q249 248 195 248Q134 248 97 296T60 426Q60 538 117 608T266 679Q335 679 377 634Q429 578 429 446Q429 263 361 121Q297 -13 176 -13Q109
-13 69 24Q50 42 40 64T20 132ZM196 427Q196 353 240 353Q264 353 278 376Q302 420 302 506Q302 575 260 575H258Q231 574 217 545Q196 499 196 427Z" />
<glyph unicode=":" glyph-name="colon" horiz-adv-x="221" d="M28 149H160L135 0H3L28 149ZM85 493H218L193 344H60L85 493Z" />
<glyph unicode=";" glyph-name="semicolon" horiz-adv-x="221" d="M28 149H160L138 16L38 -154H-19L59 0H3L28 149ZM85 493H218L193 344H60L85 493Z" />
<glyph unicode="&lt;" glyph-name="less" horiz-adv-x="460" d="M64 385L422 594V473L176 333L422 193V73L64 282V385Z" />
<glyph unicode="=" glyph-name="equal" horiz-adv-x="460" d="M426 362H63V467H426V362ZM426 199H63V305H426V199Z" />
<glyph unicode="&gt;" glyph-name="greater" horiz-adv-x="460" d="M64 594L422 385V282L64 73V193L310 333L64 473V594Z" />
<glyph unicode="?" glyph-name="question" horiz-adv-x="425" d="M171 473L74 509Q88 556 97 576T124 619Q172 679 267 679Q342 679 386 635T430 516Q430 446 396 399Q370 363 316 324Q278 297 266 275T248 202H133Q137 251 145 284T171 341T201 376T241 410Q274
436 286 459T298 517Q298 577 250 577Q223 577 205 553T171 473ZM122 149H248L224 0H98L122 149Z" />
<glyph unicode="@" glyph-name="at" horiz-adv-x="579" d="M435 504L407 303Q402 258 402 244Q402 210 429 210Q440 210 449 216T462 229T467 238Q489 286 489 379Q489 406 487 432T474 493T446 554T396 598T319 616Q224 616 174 534T124 333Q124 187 194 110Q246
52 335 52Q403 52 459 79L480 15Q412 -19 332 -19Q191 -19 117 81T42 331Q42 481 116 584T319 688Q382 688 431 663T508 594T551 498T566 388Q566 329 552 275T502 179T417 138Q381 138 364 153T337 192Q330 175 325 167T306 148T273 138Q234 138 212 176T190 284Q190
373 221 442T308 511Q331 511 343 499T364 464L370 504H435ZM271 280Q271 225 292 225Q311 225 320 249Q339 302 339 371Q339 424 313 424Q293 424 282 377T271 280Z" />
<glyph unicode="A" glyph-name="A" horiz-adv-x="460" d="M366 667L412 0H276L271 146H148L96 0H-36L226 667H366ZM187 260H267L263 432V454V484V506L258 483L250 459L244 438L187 260Z" />
<glyph unicode="B" glyph-name="B" horiz-adv-x="494" d="M11 0L122 667H295Q384 667 430 627T477 509Q477 430 429 385Q404 364 353 348Q397 327 415 306Q450 266 450 201Q450 157 431 114Q404 55 352 28T212 0H11ZM238 562L210 394H238Q293 394 316 421Q342
452 342 496Q342 562 262 562H238ZM193 294L162 110H206Q257 110 282 134Q315 169 315 218Q315 294 224 294H193Z" />
<glyph unicode="C" glyph-name="C" horiz-adv-x="460" d="M460 427L333 419Q335 447 335 473Q335 520 325 540T289 561Q250 561 229 493Q209 428 196 341T182 191Q182 106 231 106Q258 106 275 135T307 232L431 208Q407 94 355 41T216 -13Q128 -13 82 47T36 222Q36
310 55 401T109 559Q171 679 292 679Q375 679 418 627T462 475Q462 454 460 427Z" />
<glyph unicode="D" glyph-name="D" horiz-adv-x="476" d="M11 0L122 667H251Q312 667 351 655Q380 646 408 618Q467 559 467 419Q467 209 378 88Q343 41 295 21T169 0H11ZM237 558L162 110H190Q261 110 293 200Q332 309 332 435Q332 500 315 529T259 558H237Z" />
<glyph unicode="E" glyph-name="E" horiz-adv-x="425" d="M122 667H467L449 553H236L211 397H385L365 287H192L164 117H383L362 0H11L122 667Z" />
<glyph unicode="F" glyph-name="F" horiz-adv-x="391" d="M122 667H452L432 553H236L208 383H369L351 272H190L144 0H11L122 667Z" />
<glyph unicode="G" glyph-name="G" horiz-adv-x="476" d="M273 346H457L399 0H339L333 69Q291 -13 204 -13Q36 -13 36 224Q36 397 100 540Q163 679 298 679Q380 679 426 631T472 499Q472 493 470 465L348 451L350 483Q350 527 338 546T297 566Q263 566 243 537Q213
498 191 385Q172 275 172 197Q172 145 185 123T231 101Q267 101 287 132T319 236H255L273 346Z" />
<glyph unicode="H" glyph-name="H" horiz-adv-x="477" d="M494 667L383 0H249L297 284H191L144 0H11L122 667H256L211 401H316L361 667H494Z" />
<glyph unicode="I" glyph-name="I" horiz-adv-x="238" d="M122 667H256L144 0H11L122 667Z" />
<glyph unicode="J" glyph-name="J" horiz-adv-x="306" d="M190 667H323L247 208Q232 118 207 71Q163 -13 49 -13Q11 -13 -33 0L-14 115Q14 106 32 106Q68 106 87 132Q105 154 116 219L190 667Z" />
<glyph unicode="K" glyph-name="K" horiz-adv-x="460" d="M122 667H256L215 427L362 667H507L341 412L419 0H272L227 300L184 240L144 0H11L122 667Z" />
<glyph unicode="L" glyph-name="L" horiz-adv-x="374" d="M122 667H256L164 117H335L316 0H11L122 667Z" />
<glyph unicode="M" glyph-name="M" horiz-adv-x="647" d="M11 0L122 667H304L316 318Q318 270 317 220Q336 287 354 335L478 667H664L553 0H422L475 315Q490 404 512 506Q509 498 493 452T471 392L316 0H227L205 339Q201 411 207 517Q205 507 200 468T190 392T180
334L124 0H11Z" />
<glyph unicode="N" glyph-name="N" horiz-adv-x="494" d="M11 0L122 667H257L325 385Q332 352 341 284Q343 301 348 350T358 427L397 667H511L399 0H293L210 350Q201 391 192 456Q191 447 186 390T177 309L124 0H11Z" />
<glyph unicode="O" glyph-name="O" horiz-adv-x="476" d="M35 223Q35 389 92 526Q123 599 176 639T298 679H304Q466 674 466 451Q466 251 392 109Q329 -13 206 -13Q122 -13 79 47T35 223ZM170 173Q170 101 215 101T285 179Q304 238 317 328T331 485Q331 529 321
547T287 566Q249 566 224 499Q202 435 186 340T170 173Z" />
<glyph unicode="P" glyph-name="P" horiz-adv-x="442" d="M122 667H272Q344 667 385 645Q424 626 445 583T466 480Q466 377 408 314T254 251H186L144 0H11L122 667ZM204 362H250Q331 362 331 484Q331 522 317 539T270 557H237L204 362Z" />
<glyph unicode="Q" glyph-name="Q" horiz-adv-x="476" d="M409 -17L398 -127Q358 -135 334 -135Q286 -135 260 -109T233 -36Q233 -23 235 -11Q209 -13 201 -13Q124 -13 81 49T38 223Q38 397 95 526Q125 599 179 639T300 679Q469 679 469 451Q469 249 395 109Q371
66 330 29V19Q330 -22 372 -22Q381 -22 409 -17ZM290 566Q252 566 227 499Q205 435 189 340T173 174Q173 101 218 101T288 179Q307 239 320 329T334 486Q334 530 324 548T290 566Z" />
<glyph unicode="R" glyph-name="R" horiz-adv-x="476" d="M122 667H292Q367 667 407 640Q473 599 473 487Q473 390 422 333Q402 310 358 290L412 0H266L234 267H189L144 0H11L122 667ZM206 372H240Q338 372 338 489Q338 562 268 562H238L206 372Z" />
<glyph unicode="S" glyph-name="S" horiz-adv-x="443" d="M440 515L326 476Q309 561 257 561Q232 561 216 543T200 496Q200 478 210 460Q225 435 287 394Q347 354 375 324Q417 278 417 209Q417 111 359 49T209 -13Q123 -13 73 39T14 189L132 212Q135 167 151 141Q173
106 215 106Q246 106 264 126T282 183Q282 210 269 227T215 272Q160 309 142 323T108 355Q69 399 69 464Q69 556 123 617T259 679Q328 679 376 637T440 515Z" />
<glyph unicode="T" glyph-name="T" horiz-adv-x="391" d="M85 667H446L427 549H313L221 0H88L180 549H65L85 667Z" />
<glyph unicode="U" glyph-name="U" horiz-adv-x="477" d="M116 667H248L184 282Q174 222 174 221Q170 187 170 169Q170 106 225 106Q262 106 281 140Q300 179 317 286L382 667H500L436 282Q417 169 401 122Q356 -13 208 -13Q126 -13 84 32T41 165Q41 224 52 286L116 667Z" />
<glyph unicode="V" glyph-name="V" horiz-adv-x="425" d="M100 0L71 667H212L218 294Q220 234 217 178Q229 229 255 314L367 667H487L251 0H100Z" />
<glyph unicode="W" glyph-name="W" horiz-adv-x="664" d="M100 0L76 667H213L210 366Q210 341 208 300T206 239Q229 330 236 351L340 667H464L470 366V239Q495 343 504 374L593 667H716L489 0H373L360 351Q358 388 361 454Q343 382 334 356L213 0H100Z" />
<glyph unicode="X" glyph-name="X" horiz-adv-x="442" d="M76 667H224L256 495L345 667H484L298 355L394 0H247L205 199L99 0H-35L163 344L76 667Z" />
<glyph unicode="Y" glyph-name="Y" horiz-adv-x="425" d="M65 667H201L252 426L370 667H496L293 279L246 0H108L155 286L65 667Z" />
<glyph unicode="Z" glyph-name="Z" horiz-adv-x="425" d="M101 667H467L450 563L156 117H385L365 0H-20L-3 106L293 553H83L101 667Z" />
<glyph unicode="[" glyph-name="bracketleft" horiz-adv-x="289" d="M135 667H308L298 606H238L119 -107H187L177 -167H-5L135 667Z" />
<glyph unicode="\" glyph-name="backslash" horiz-adv-x="357" d="M178 667L427 -167H345L96 667H178Z" />
<glyph unicode="]" glyph-name="bracketright" horiz-adv-x="289" d="M155 -167H-19L-9 -107H51L170 606H102L112 667H293L155 -167Z" />
<glyph unicode="^" glyph-name="asciicircum" horiz-adv-x="460" d="M474 316H353L243 562L133 316H13L192 674H295L474 316Z" />
<glyph unicode="_" glyph-name="underscore" horiz-adv-x="500" d="M0 -75H500V-125H0V-75Z" />
<glyph unicode="`" glyph-name="grave" horiz-adv-x="460" d="M217 713L352 596L317 548L167 643L217 713Z" />
<glyph unicode="a" glyph-name="a" horiz-adv-x="408" d="M177 339L61 358Q96 507 241 507Q307 507 346 471T386 376Q386 352 375 288L346 110Q336 60 336 23Q336 22 338 0H226Q223 16 223 26Q223 28 223 36T224 50Q212 34 191 15Q166 -6 122 -6Q70 -6 40 25T10
111Q10 141 23 178Q45 239 95 269T241 308L259 310Q267 348 267 370Q267 420 232 420Q203 420 190 390Q182 372 177 339ZM143 130Q143 79 181 79Q221 79 241 195L247 238Q212 232 190 219Q169 206 156 181T143 130Z" />
<glyph unicode="b" glyph-name="b" horiz-adv-x="391" d="M-5 0L107 667H233L196 449Q216 478 233 489T275 500Q323 500 351 458T380 342Q380 242 341 128Q296 -6 199 -6Q154 -6 129 19Q113 35 103 69Q83 33 68 0H-5ZM248 339Q248 404 220 404Q201 404 190 381Q185
369 178 337L149 167Q148 161 147 154T145 141T144 133Q144 114 153 101T176 88Q205 88 224 174Q248 285 248 339Z" />
<glyph unicode="c" glyph-name="c" horiz-adv-x="374" d="M369 315L258 307Q260 339 260 340Q260 411 224 411Q190 411 174 346Q156 271 148 194Q143 134 143 129Q143 82 177 82Q222 82 243 190L351 170Q334 80 287 33T167 -14Q16 -14 16 176Q16 327 73 417T228
507Q294 507 333 465T372 351Q372 342 369 315Z" />
<glyph unicode="d" glyph-name="d" horiz-adv-x="391" d="M298 667H424L313 0H200L210 56Q181 20 161 7T113 -6Q64 -6 38 35T12 154Q12 296 63 398T186 500Q237 500 260 443L298 667ZM244 340Q246 356 246 363Q246 406 218 406Q200 406 188 377Q172 339 159 265Q144
187 144 141Q144 88 170 88Q201 88 218 186L244 340Z" />
<glyph unicode="e" glyph-name="e" horiz-adv-x="391" d="M360 224H146L145 213Q143 176 143 156Q143 115 151 99T179 82Q201 82 213 99T238 168L343 148Q329 96 315 69Q270 -14 167 -14Q16 -14 16 184Q16 330 73 418T225 507Q366 507 366 324Q366 285 360 224ZM243
302Q247 341 247 370Q247 420 217 420Q174 420 155 302H243Z" />
<glyph unicode="f" glyph-name="f" horiz-adv-x="255" d="M293 493L275 385H211L146 0H16L80 385H36L53 493H98Q112 582 134 628Q170 697 273 697Q300 697 335 692L316 582Q312 582 302 582T287 583Q259 583 248 567T225 493H293Z" />
<glyph unicode="g" glyph-name="g" horiz-adv-x="409" d="M418 604L409 512Q396 513 385 513Q366 513 357 505T340 470Q388 432 388 359Q388 285 344 240T226 194Q196 194 165 205Q133 181 133 161Q133 149 140 142Q151 127 213 120Q222 119 233 117T246 115Q297
106 321 84Q354 51 354 -2Q354 -83 295 -130T132 -178Q58 -178 17 -150T-24 -70Q-24 -33 -4 -10T63 34Q22 62 22 114Q22 186 109 233Q105 237 101 242T95 249Q65 284 65 339Q65 412 112 459T231 507Q264 507 293 494Q308 556 330 581T393 606Q406 606 418 604ZM234
427Q186 426 186 328Q186 299 194 287T221 274Q268 274 268 377Q268 427 235 427H234ZM116 11Q81 -7 81 -43Q81 -91 153 -91Q193 -91 217 -77T242 -39Q242 -8 210 -2Q172 9 116 11Z" />
<glyph unicode="h" glyph-name="h" horiz-adv-x="391" d="M237 667L201 447Q237 507 292 507Q332 507 354 483T377 415Q377 384 367 328L313 0H189L241 315Q248 355 248 376Q248 404 228 404T195 379T171 292L122 0H-5L107 667H237Z" />
<glyph unicode="i" glyph-name="i" horiz-adv-x="204" d="M77 493H208L125 0H-5L77 493ZM85 538L108 674H238L215 538H85Z" />
<glyph unicode="j" glyph-name="j" horiz-adv-x="204" d="M77 493H208L129 23Q113 -78 91 -120Q59 -183 -36 -183Q-59 -183 -101 -176L-84 -67Q-66 -69 -58 -69Q-33 -69 -22 -51T-1 26L77 493ZM85 538L108 674H238L215 538H85Z" />
<glyph unicode="k" glyph-name="k" horiz-adv-x="391" d="M107 667H237L185 351L291 493H423L283 328L356 0H222L183 236L161 209L126 0H-5L107 667Z" />
<glyph unicode="l" glyph-name="l" horiz-adv-x="204" d="M107 667H237L125 0H-5L107 667Z" />
<glyph unicode="m" glyph-name="m" horiz-adv-x="579" d="M-5 0L78 493H198L188 434Q208 474 232 490T291 507Q327 507 346 490T375 430Q398 472 421 489T478 507Q518 507 541 483T565 418Q565 388 551 308L500 0H376L428 308Q436 350 436 372Q436 405 412 405Q393
405 383 385T362 308L311 0H188L239 308Q249 361 249 376Q249 404 227 404Q190 404 173 303L122 0H-5Z" />
<glyph unicode="n" glyph-name="n" horiz-adv-x="391" d="M-5 0L78 493H198L188 434Q213 474 236 490T290 507Q331 507 353 482T376 412Q376 382 363 304L313 0H189L239 304Q247 356 247 376Q247 404 226 404Q207 404 196 382T174 304L122 0H-5Z" />
<glyph unicode="o" glyph-name="o" horiz-adv-x="391" d="M17 190Q17 336 73 421T224 507H235Q294 507 334 456T374 312Q374 195 335 105Q312 49 268 18T169 -14Q17 -14 17 190ZM247 364Q247 411 220 411Q200 411 189 390T167 308Q144 177 144 123Q144 82 171
82Q191 82 202 106T226 198Q247 303 247 364Z" />
<glyph unicode="p" glyph-name="p" horiz-adv-x="391" d="M78 493H197L187 431Q224 500 274 500Q323 500 350 455T377 330Q377 186 325 76Q305 37 275 15T207 -7Q186 -7 175 -2Q160 4 151 13T129 42L94 -167H-32L78 493ZM180 348L148 160Q144 139 144 132Q144
112 152 100T174 88Q202 88 224 171Q245 255 245 335Q245 374 239 389T216 405Q206 405 196 394T184 369L180 348Z" />
<glyph unicode="q" glyph-name="q" horiz-adv-x="391" d="M316 498H397Q389 469 374 384L359 296L282 -167H155L190 41Q175 18 160 8Q139 -6 111 -6Q64 -6 38 35T12 153Q12 301 64 400T195 500Q253 500 284 429Q302 457 316 498ZM236 322Q242 347 242 365Q242
382 235 393T216 404Q190 404 176 351Q144 239 144 149Q144 88 170 88Q186 88 196 111Q205 133 215 194L236 322Z" />
<glyph unicode="r" glyph-name="r" horiz-adv-x="289" d="M78 493H193L175 388Q204 449 228 474Q256 500 294 500Q308 500 321 498L297 357Q287 359 276 359Q226 359 199 312T150 144L126 0H-5L78 493Z" />
<glyph unicode="s" glyph-name="s" horiz-adv-x="357" d="M351 381L258 347Q250 383 237 398T201 414Q184 414 172 401T159 368Q159 353 166 342Q173 328 215 305Q261 279 286 257Q329 217 329 153Q329 77 284 32T162 -14Q89 -14 47 19T-9 121L95 150Q114 79 160
79Q182 79 195 94T209 133Q209 150 198 163T158 193L121 215Q40 263 40 346Q40 417 87 462T208 507Q330 507 351 381Z" />
<glyph unicode="t" glyph-name="t" horiz-adv-x="289" d="M306 493L287 385H213L180 188Q173 135 173 132Q173 100 216 100Q231 100 249 103L231 -5Q189 -14 151 -14Q96 -14 67 14T37 93Q37 109 50 191L82 385H30L48 493H106L133 633L255 637L230 493H306Z" />
<glyph unicode="u" glyph-name="u" horiz-adv-x="392" d="M390 494L307 0H189L198 56Q174 20 154 5Q129 -14 97 -14Q58 -14 36 12T13 85Q13 123 22 177L75 494H199L146 177Q137 119 137 111Q137 89 159 89Q177 89 189 110Q202 131 213 197L263 494H390Z" />
<glyph unicode="v" glyph-name="v" horiz-adv-x="358" d="M374 493L187 0H78L38 493H164L169 301Q171 199 171 179Q176 207 207 304L267 493H374Z" />
<glyph unicode="w" glyph-name="w" horiz-adv-x="546" d="M565 493L385 0H274L271 236Q271 249 276 337Q269 303 244 217L178 0H69L42 493H165L167 288Q167 243 161 157Q172 210 194 282L259 493H373L372 281Q372 253 367 165Q378 221 401 294L467 493H565Z" />
<glyph unicode="x" glyph-name="x" horiz-adv-x="358" d="M392 493L245 270L318 0H184L156 132L74 0H-43L121 245L52 493H187L211 382L278 493H392Z" />
<glyph unicode="y" glyph-name="y" horiz-adv-x="389" d="M398 493L201 -4Q173 -74 156 -102T112 -150Q79 -175 22 -175Q3 -175 -11 -172L2 -60Q22 -62 24 -62Q60 -62 77 -45T111 25L54 493H184L195 314L198 200Q211 264 227 314L288 493H398Z" />
<glyph unicode="z" glyph-name="z" horiz-adv-x="340" d="M350 493L333 394L139 98H288L272 0H-18L-1 96L195 394H57L74 493H350Z" />
<glyph unicode="{" glyph-name="braceleft" horiz-adv-x="289" d="M20 221L30 282Q44 283 52 287T71 310T88 366L114 521Q120 560 124 579T142 621T176 654Q192 663 213 665T306 667L297 612Q257 613 246 598T225 521L199 366Q189 305 173 284T122 248Q137 242
144 238T159 220T167 187Q167 174 159 126L140 17Q129 -47 129 -73Q129 -93 135 -102T149 -114T175 -117L166 -167Q95 -165 75 -162T40 -148Q15 -128 15 -89Q15 -70 29 17L49 132Q53 160 53 178Q53 199 46 208T20 221Z" />
<glyph unicode="|" glyph-name="bar" horiz-adv-x="500" d="M328 750V-250H200V750H328Z" />
<glyph unicode="}" glyph-name="braceright" horiz-adv-x="289" d="M269 279L259 218Q245 217 237 213T218 190T201 134L175 -21Q169 -60 165 -79T147 -121T113 -154Q97 -163 76 -165T-17 -167L-8 -112Q32 -113 43 -98T64 -21L90 134Q100 195 116 216T167 252Q152
258 145 262T130 280T122 313Q122 326 130 374L149 483Q160 547 160 573Q160 593 154 602T140 614T114 617L123 667Q194 665 214 662T249 648Q274 628 274 589Q274 570 260 483L240 368Q236 340 236 322Q236 301 243 292T269 279Z" />
<glyph unicode="~" glyph-name="asciitilde" horiz-adv-x="460" d="M77 238L9 291Q41 356 56 374Q94 420 154 420Q184 420 252 395Q313 372 334 372Q360 372 375 385T403 424L472 375Q460 349 450 333T422 294T379 260T321 248Q296 248 224 274Q161 296 146 296Q127
296 113 287T93 268T77 238Z" />
</font>
</defs>
</svg>
