<svg version="1.1" xmlns="http://www.w3.org/2000/svg" xmlns:xlink="http://www.w3.org/1999/xlink" viewBox="-200 -200 400 400" preserveAspectRatio="xMidYMid meet" style="stroke:none">
<defs>
	<path id="rr" d="M-40 -50 L65 0 L-40 50 Z M -113.64857604557659 8.944336912974416 A 114 114 0 1 0 -80.61017305526643 -80.61017305526642 L -93.33809511662429 -93.33809511662426 A 132 132 0 1 1 -125.53946015096028 -40.79024325749301 L -90.58716468106502 12.892462722288855 Z"></path>
	<!-- <path id="rr" d="M-40 -50 L65 0 L-40 50 Z M -132 -1.6e-14 A 132 132 0 1 0 -93.33809511662416 -93.33809511662439 L -76.36753236814704 -76.36753236814722 A 108 108 0 1 1 -108 -1.3e-14 H-85 L -120 -40 L -155 13e-14 Z"/> -->
</defs>
<rect x="-200" y="-200" width="400" height="400" rx="10" style="fill:#fff;fill-opacity:0.8"/>
<use xlink:href="#rr" style="fill:#fff" transform="translate(5 5)"/>
<use xlink:href="#rr" style="fill:#000"/>
</svg>
