<?xml version="1.0" encoding="UTF-8"?>
<svg width="468px" height="388px" viewBox="0 0 468 388" version="1.1" xmlns="http://www.w3.org/2000/svg" xmlns:xlink="http://www.w3.org/1999/xlink">
    <!-- Generator: Sketch 44.1 (41455) - http://www.bohemiancoding.com/sketch -->
    <title>fpm_ux-search-1</title>
    <desc>Created with Sketch.</desc>
    <defs>
        <path d="M3,0.25 L55.5,0.25 C57.15686,0.25 58.5,1.59314 58.5,3.25 L58.5,19.75 C58.5,21.40686 57.15686,22.75 55.5,22.75 L3,22.75 C1.34314,22.75 0,21.40686 0,19.75 L0,19.75 L0,3.25 C0,1.59314 1.34314,0.25 3,0.25 L3,0.25 Z" id="path-1"></path>
        <filter x="-12.4%" y="-23.3%" width="124.8%" height="164.4%" filterUnits="objectBoundingBox" id="filter-2">
            <feMorphology radius="0.25" operator="dilate" in="SourceAlpha" result="shadowSpreadOuter1"></feMorphology>
            <feOffset dx="0" dy="2" in="shadowSpreadOuter1" result="shadowOffsetOuter1"></feOffset>
            <feGaussianBlur stdDeviation="2" in="shadowOffsetOuter1" result="shadowBlurOuter1"></feGaussianBlur>
            <feComposite in="shadowBlurOuter1" in2="SourceAlpha" operator="out" result="shadowBlurOuter1"></feComposite>
            <feColorMatrix values="0 0 0 0 0   0 0 0 0 0   0 0 0 0 0  0 0 0 0.33 0" type="matrix" in="shadowBlurOuter1"></feColorMatrix>
        </filter>
        <path d="M3,0 L55.5,0 C57.15686,0 58.5,1.34314 58.5,3 L58.5,28.5 C58.5,30.15686 57.15686,31.5 55.5,31.5 L3,31.5 C1.34314,31.5 0,30.15686 0,28.5 L0,28.5 L0,3 C0,1.34314 1.34314,0 3,0 L3,0 Z" id="path-3"></path>
        <filter x="-12.4%" y="-16.7%" width="124.8%" height="146.0%" filterUnits="objectBoundingBox" id="filter-4">
            <feMorphology radius="0.25" operator="dilate" in="SourceAlpha" result="shadowSpreadOuter1"></feMorphology>
            <feOffset dx="0" dy="2" in="shadowSpreadOuter1" result="shadowOffsetOuter1"></feOffset>
            <feGaussianBlur stdDeviation="2" in="shadowOffsetOuter1" result="shadowBlurOuter1"></feGaussianBlur>
            <feComposite in="shadowBlurOuter1" in2="SourceAlpha" operator="out" result="shadowBlurOuter1"></feComposite>
            <feColorMatrix values="0 0 0 0 0   0 0 0 0 0   0 0 0 0 0  0 0 0 0.33 0" type="matrix" in="shadowBlurOuter1"></feColorMatrix>
        </filter>
        <rect id="path-5" x="19.5" y="0.5" width="446.5" height="118"></rect>
        <filter x="-1.6%" y="-4.4%" width="103.2%" height="112.3%" filterUnits="objectBoundingBox" id="filter-6">
            <feMorphology radius="0.25" operator="dilate" in="SourceAlpha" result="shadowSpreadOuter1"></feMorphology>
            <feOffset dx="0" dy="2" in="shadowSpreadOuter1" result="shadowOffsetOuter1"></feOffset>
            <feGaussianBlur stdDeviation="2" in="shadowOffsetOuter1" result="shadowBlurOuter1"></feGaussianBlur>
            <feComposite in="shadowBlurOuter1" in2="SourceAlpha" operator="out" result="shadowBlurOuter1"></feComposite>
            <feColorMatrix values="0 0 0 0 0   0 0 0 0 0   0 0 0 0 0  0 0 0 0.33 0" type="matrix" in="shadowBlurOuter1"></feColorMatrix>
        </filter>
    </defs>
    <g id="Search" stroke="none" stroke-width="1" fill="none" fill-rule="evenodd">
        <g id="fpm_ux-search-1">
            <g id="search-submit" transform="translate(21.000000, 180.000000)">
                <g id="dropdown-2" transform="translate(135.000000, 0.000000)">
                    <g id="button" transform="translate(0.000000, 0.500000)">
                        <path d="M3,0 L55.5,0 C57.15686,0 58.5,1.34314 58.5,3 L58.5,10.5 C58.5,12.15686 57.15686,13.5 55.5,13.5 L3,13.5 C1.34314,13.5 0,12.15686 0,10.5 L0,10.5 L0,3 C0,1.34314 1.34314,0 3,0 L3,0 Z" id="Shape" fill="#FFFFFF"></path>
                        <path d="M3,0 L55.5,0 C57.15686,0 58.5,1.34314 58.5,3 L58.5,10.5 C58.5,12.15686 57.15686,13.5 55.5,13.5 L3,13.5 C1.34314,13.5 0,12.15686 0,10.5 L0,10.5 L0,3 C0,1.34314 1.34314,0 3,0 L3,0 Z" id="Shape" stroke="#000000" stroke-width="0.5"></path>
                        <text id="Any" fill="#000000" font-family="Helvetica-Bold, Helvetica" font-size="6" font-weight="bold">
                            <tspan x="5" y="9">Any</tspan>
                        </text>
                        <polygon id="Shape" fill="#000000" points="53.7191 5.28139 51.79736 8.21815 49.8756 5.28139"></polygon>
                        <polygon id="Shape" stroke="#FFFFFF" stroke-width="0.25" points="53.7191 5.28139 51.79736 8.21815 49.8756 5.28139"></polygon>
                        <path d="M45,0 L45,13.5" id="Shape" stroke="#000000" stroke-width="0.5"></path>
                    </g>
                    <g id="overlay" transform="translate(0.000000, 13.750000)">
                        <g id="Shape">
                            <use fill="black" fill-opacity="1" filter="url(#filter-2)" xlink:href="#path-1"></use>
                            <use stroke="#4A4A4A" stroke-width="0.5" fill="#FFFFFF" fill-rule="evenodd" xlink:href="#path-1"></use>
                        </g>
                        <path d="M3,0.25 L55.5,0.25 C57.15686,0.25 58.5,1.59314 58.5,3.25 L58.5,19.75 C58.5,21.40686 57.15686,22.75 55.5,22.75 L3,22.75 C1.34314,22.75 0,21.40686 0,19.75 L0,19.75 L0,3.25 C0,1.59314 1.34314,0.25 3,0.25 L3,0.25 Z" id="Shape" stroke="#000000" stroke-width="0.5"></path>
                        <rect id="Rectangle-path" fill="#000000" x="0" y="11.5" width="58.5" height="9"></rect>
                        <text id="Any" fill="#FFFFFF" font-family="Helvetica-Bold, Helvetica" font-size="6" font-weight="bold">
                            <tspan x="5" y="18">Any</tspan>
                        </text>
                        <text id="All" fill="#000000" font-family="Helvetica" font-size="6" font-weight="normal">
                            <tspan x="5" y="9">All</tspan>
                        </text>
                    </g>
                </g>
                <text id="that-match" fill="#000000" font-family="Helvetica-Bold, Helvetica" font-size="6" font-weight="bold">
                    <tspan x="99.861" y="9.5">that match</tspan>
                </text>
                <g id="dropdown-1" transform="translate(36.000000, 0.000000)">
                    <g id="Group-2">
                        <path d="M3,0.5 L55.5,0.5 C57.15686,0.5 58.5,1.84314 58.5,3.5 L58.5,11 C58.5,12.65686 57.15686,14 55.5,14 L3,14 C1.34314,14 0,12.65686 0,11 L0,11 L0,3.5 C0,1.84314 1.34314,0.5 3,0.5 L3,0.5 Z" id="Shape" fill="#FFFFFF"></path>
                        <path d="M3,0.5 L55.5,0.5 C57.15686,0.5 58.5,1.84314 58.5,3.5 L58.5,11 C58.5,12.65686 57.15686,14 55.5,14 L3,14 C1.34314,14 0,12.65686 0,11 L0,11 L0,3.5 C0,1.84314 1.34314,0.5 3,0.5 L3,0.5 Z" id="Shape" stroke="#000000" stroke-width="0.5"></path>
                        <text id="Songs" fill="#000000" font-family="Helvetica-Bold, Helvetica" font-size="6" font-weight="bold">
                            <tspan x="5" y="9.5">Songs</tspan>
                        </text>
                        <polygon id="Shape" fill="#000000" points="53.7191 5.78139 51.79736 8.71815 49.8756 5.78139"></polygon>
                        <polygon id="Shape" stroke="#FFFFFF" stroke-width="0.25" points="53.7191 5.78139 51.79736 8.71815 49.8756 5.78139"></polygon>
                        <path d="M45,0.5 L45,14" id="Shape" stroke="#000000" stroke-width="0.5"></path>
                    </g>
                    <g id="overlay" transform="translate(0.000000, 14.000000)">
                        <g id="Shape">
                            <use fill="black" fill-opacity="1" filter="url(#filter-4)" xlink:href="#path-3"></use>
                            <use stroke="#4A4A4A" stroke-width="0.5" fill="#FFFFFF" fill-rule="evenodd" xlink:href="#path-3"></use>
                        </g>
                        <path d="M3,0 L55.5,0 C57.15686,0 58.5,1.34314 58.5,3 L58.5,28.5 C58.5,30.15686 57.15686,31.5 55.5,31.5 L3,31.5 C1.34314,31.5 0,30.15686 0,28.5 L0,28.5 L0,3 C0,1.34314 1.34314,0 3,0 L3,0 Z" id="Shape" stroke="#000000" stroke-width="0.5"></path>
                        <rect id="Rectangle-path" fill="#000000" x="0" y="11.25" width="58.5" height="9"></rect>
                        <text id="Albums" fill="#FFFFFF" font-family="Helvetica-Bold, Helvetica" font-size="6" font-weight="bold">
                            <tspan x="5" y="17.75">Albums</tspan>
                        </text>
                        <text id="Songs-&amp;-Albums" fill="#000000" font-family="Helvetica" font-size="6" font-weight="normal">
                            <tspan x="5" y="26.75">Songs &amp; Albums</tspan>
                        </text>
                        <text id="Songs" fill="#000000" font-family="Helvetica" font-size="6" font-weight="normal">
                            <tspan x="5" y="8.75">Songs</tspan>
                        </text>
                    </g>
                </g>
                <text id="Search-for" fill="#000000" font-family="Helvetica-Bold, Helvetica" font-size="6" font-weight="bold">
                    <tspan x="0.71399975" y="9.5">Search for</tspan>
                </text>
            </g>
            <g id="search-submit-desc" transform="translate(57.000000, 139.000000)" font-size="6" font-family="Helvetica-Bold, Helvetica" fill="#000000" font-weight="bold">
                <text id="The-first-dropdown-selects-the-kind-of-item-whose">
                    <tspan x="0" y="6">The first dropdown selects the kind of item whose</tspan>
                </text>
                <text id="properties-will-be-checked-against-the-constraints.">
                    <tspan x="0" y="13">properties will be checked against the constraints.</tspan>
                </text>
                <text id="The-second-dropdown-will-select-the-boolean-oper-">
                    <tspan x="0" y="24">The second dropdown will select the boolean oper-</tspan>
                </text>
                <text id="ation-to-chain-the-constraints.">
                    <tspan x="0" y="31">ation to chain the constraints.</tspan>
                </text>
            </g>
            <g id="connector" transform="translate(0.000000, 27.000000)" stroke="#000000" stroke-width="0.5">
                <polyline id="Shape" points="13.25 13.75 8.75 13.75 8.75 0.75 13.25 0.75"></polyline>
                <path d="M9,7.36765359 L3,7.36765359 C1.343147,7.36765359 0,8.71079359 0,10.3676536 L0,157.25 C0,158.90686 1.343147,160.25 3,160.25 L7.55,160.25"></path>
                <polygon id="arrow" fill="#000000" transform="translate(8.500000, 160.250000) rotate(90.000000) translate(-8.500000, -160.250000) " points="8.5 158.25 7 162.25 8.5 160.75 8.5 160.75 10 162.25"></polygon>
            </g>
            <g id="panel-border+shadow">
                <use fill="black" fill-opacity="1" filter="url(#filter-6)" xlink:href="#path-5"></use>
                <use stroke="#4A4A4A" stroke-width="0.5" fill="#FFFFFF" fill-rule="evenodd" xlink:href="#path-5"></use>
            </g>
            <g id="search-panel" transform="translate(20.000000, 0.500000)">
                <rect id="Rectangle-path" stroke="#000000" stroke-width="0.5" fill="#FFFFFF" x="0" y="0.5" width="445.5" height="117"></rect>
                <g id="search-for" stroke-width="1" transform="translate(29.000000, 27.000000)">
                    <text id="Search-for" fill="#000000" font-family="Helvetica-Bold, Helvetica" font-size="6" font-weight="bold">
                        <tspan x="0.21399975" y="9.5">Search for</tspan>
                    </text>
                    <text id="that-match" fill="#000000" font-family="Helvetica-Bold, Helvetica" font-size="6" font-weight="bold">
                        <tspan x="97.861" y="9.5">that match</tspan>
                    </text>
                    <g id="dd2" transform="translate(34.000000, 0.000000)">
                        <path d="M3,0.5 L55.5,0.5 C57.15686,0.5 58.5,1.84314 58.5,3.5 L58.5,11 C58.5,12.65686 57.15686,14 55.5,14 L3,14 C1.34315,14 0,12.65686 0,11 L0,11 L0,3.5 C0,1.84314 1.34315,0.5 3,0.5 L3,0.5 Z" id="Shape" fill="#FFFFFF"></path>
                        <path d="M3,0.5 L55.5,0.5 C57.15686,0.5 58.5,1.84314 58.5,3.5 L58.5,11 C58.5,12.65686 57.15686,14 55.5,14 L3,14 C1.34315,14 0,12.65686 0,11 L0,11 L0,3.5 C0,1.84314 1.34315,0.5 3,0.5 L3,0.5 Z" id="Shape" stroke="#000000" stroke-width="0.5"></path>
                        <text id="Songs" fill="#000000" font-family="Helvetica-Bold, Helvetica" font-size="6" font-weight="bold">
                            <tspan x="5" y="9.5">Songs</tspan>
                        </text>
                        <polygon id="Shape" fill="#000000" points="53.71915 5.78139 51.79738 8.718155 49.87561 5.78139"></polygon>
                        <polygon id="Shape" stroke="#FFFFFF" stroke-width="0.25" points="53.71915 5.78139 51.79738 8.718155 49.87561 5.78139"></polygon>
                        <path d="M45,0.5 L45,14" id="Shape" stroke="#000000" stroke-width="0.5"></path>
                    </g>
                    <g id="dd1" transform="translate(133.000000, 0.000000)">
                        <path d="M3,0.5 L55.5,0.5 C57.15686,0.5 58.5,1.84314 58.5,3.5 L58.5,11 C58.5,12.65686 57.15686,14 55.5,14 L3,14 C1.34314,14 0,12.65686 0,11 L0,11 L0,3.5 C0,1.84314 1.34314,0.5 3,0.5 L3,0.5 Z" id="Shape" fill="#FFFFFF"></path>
                        <path d="M3,0.5 L55.5,0.5 C57.15686,0.5 58.5,1.84314 58.5,3.5 L58.5,11 C58.5,12.65686 57.15686,14 55.5,14 L3,14 C1.34314,14 0,12.65686 0,11 L0,11 L0,3.5 C0,1.84314 1.34314,0.5 3,0.5 L3,0.5 Z" id="Shape" stroke="#000000" stroke-width="0.5"></path>
                        <text id="Any" fill="#000000" font-family="Helvetica-Bold, Helvetica" font-size="6" font-weight="bold">
                            <tspan x="5" y="9.5">Any</tspan>
                        </text>
                        <polygon id="Shape" fill="#000000" points="53.71918 5.78139 51.7974 8.718155 49.87561 5.78139"></polygon>
                        <polygon id="Shape" stroke="#FFFFFF" stroke-width="0.25" points="53.71918 5.78139 51.7974 8.718155 49.87561 5.78139"></polygon>
                        <path d="M45,0.5 L45,14" id="Shape" stroke="#000000" stroke-width="0.5"></path>
                    </g>
                    <text id="of-these-constraints:" fill="#000000" font-family="Helvetica-Bold, Helvetica" font-size="6" font-weight="bold">
                        <tspan x="196.960001" y="9.5">of these constraints:</tspan>
                    </text>
                </g>
                <g id="constraint-1" stroke-width="1" transform="translate(63.000000, 45.000000)">
                    <rect id="Rectangle-path" fill="#E6E6E6" x="0" y="0.5" width="378" height="22.5"></rect>
                    <rect id="Rectangle-path" stroke="#000000" stroke-width="0.25" x="0" y="0.5" width="378" height="22.5"></rect>
                    <g id="dd1" transform="translate(4.000000, 5.000000)">
                        <path d="M3.5,0 L56,0 C57.65686,0 59,1.34314 59,3 L59,10.5 C59,12.15686 57.65686,13.5 56,13.5 L3.5,13.5 C1.84315,13.5 0.5,12.15686 0.5,10.5 L0.5,10.5 L0.5,3 C0.5,1.34314 1.84315,0 3.5,0 L3.5,0 Z" id="Shape" fill="#FFFFFF"></path>
                        <path d="M3.5,0 L56,0 C57.65686,0 59,1.34314 59,3 L59,10.5 C59,12.15686 57.65686,13.5 56,13.5 L3.5,13.5 C1.84315,13.5 0.5,12.15686 0.5,10.5 L0.5,10.5 L0.5,3 C0.5,1.34314 1.84315,0 3.5,0 L3.5,0 Z" id="Shape" stroke="#000000" stroke-width="0.5"></path>
                        <text id="Has" fill="#000000" font-family="Helvetica-Bold, Helvetica" font-size="6" font-weight="bold">
                            <tspan x="5.5" y="9">Has</tspan>
                        </text>
                        <polygon id="Shape" fill="#000000" points="54.21915 5.28139 52.29738 8.21815 50.37561 5.28139"></polygon>
                        <polygon id="Shape" stroke="#FFFFFF" stroke-width="0.25" points="54.21915 5.28139 52.29738 8.21815 50.37561 5.28139"></polygon>
                        <path d="M45.5,0 L45.5,13.5" id="Shape" stroke="#000000" stroke-width="0.5"></path>
                    </g>
                    <g id="dd2" transform="translate(67.000000, 5.000000)">
                        <path d="M3.5,0 L56,0 C57.65686,0 59,1.34314 59,3 L59,10.5 C59,12.15686 57.65686,13.5 56,13.5 L3.5,13.5 C1.84314,13.5 0.5,12.15686 0.5,10.5 L0.5,10.5 L0.5,3 C0.5,1.34314 1.84314,0 3.5,0 L3.5,0 Z" id="Shape" fill="#FFFFFF"></path>
                        <path d="M3.5,0 L56,0 C57.65686,0 59,1.34314 59,3 L59,10.5 C59,12.15686 57.65686,13.5 56,13.5 L3.5,13.5 C1.84314,13.5 0.5,12.15686 0.5,10.5 L0.5,10.5 L0.5,3 C0.5,1.34314 1.84314,0 3.5,0 L3.5,0 Z" id="Shape" stroke="#000000" stroke-width="0.5"></path>
                        <text id="Mood" fill="#000000" font-family="Helvetica-Bold, Helvetica" font-size="6" font-weight="bold">
                            <tspan x="5.5" y="9">Mood</tspan>
                        </text>
                        <polygon id="Shape" fill="#000000" points="54.21915 5.28139 52.29738 8.21815 50.37561 5.28139"></polygon>
                        <polygon id="Shape" stroke="#FFFFFF" stroke-width="0.25" points="54.21915 5.28139 52.29738 8.21815 50.37561 5.28139"></polygon>
                        <path d="M45.5,0 L45.5,13.5" id="Shape" stroke="#000000" stroke-width="0.5"></path>
                    </g>
                    <g id="txt-field" transform="translate(130.000000, 5.000000)">
                        <path d="M7.25,0 L236.75,0 C240.47794,0 243.5,3.02208 243.5,6.75 L243.5,6.75 C243.5,10.47792 240.47794,13.5 236.75,13.5 L7.25,13.5 C3.52208,13.5 0.5,10.47792 0.5,6.75 L0.5,6.75 L0.5,6.75 C0.5,3.02208 3.52208,0 7.25,0 L7.25,0 Z" id="Shape" fill="#FFFFFF"></path>
                        <path d="M7.25,0 L236.75,0 C240.47794,0 243.5,3.02208 243.5,6.75 L243.5,6.75 C243.5,10.47792 240.47794,13.5 236.75,13.5 L7.25,13.5 C3.52208,13.5 0.5,10.47792 0.5,6.75 L0.5,6.75 L0.5,6.75 C0.5,3.02208 3.52208,0 7.25,0 L7.25,0 Z" id="Shape" stroke="#999999" stroke-width="0.5"></path>
                        <text id="Terror-+-Suspense,-Terror-+-Climatic" fill="#000000" font-family="Helvetica" font-size="6" font-weight="normal">
                            <tspan x="8.5" y="9">Terror + Suspense, Terror + Climatic</tspan>
                        </text>
                    </g>
                </g>
                <g id="get-results" stroke-width="1" transform="translate(387.000000, 99.000000)">
                    <path d="M3,0.5 L51,0.5 C52.65686,0.5 54,1.84314 54,3.5 L54,11 C54,12.65686 52.65686,14 51,14 L3,14 C1.34314,14 0,12.65686 0,11 L0,11 L0,3.5 C0,1.84314 1.34314,0.5 3,0.5 L3,0.5 Z" id="Shape" stroke="#000000"></path>
                    <text id="Get-results" fill="#000000" font-family="Helvetica-Bold, Helvetica" font-size="6" font-weight="bold">
                        <tspan x="5" y="9.5">Get results</tspan>
                    </text>
                    <g id="loupe" transform="translate(41.000000, 4.000000)">
                        <g>
                            <path d="M4.35685508,5.44250696 C3.97653244,5.62892249 3.54885865,5.7335834 3.09674,5.7335834 C1.51345466,5.7335834 0.2299483,4.45007704 0.2299483,2.8667917 C0.2299483,1.28350636 1.51345466,0 3.09674,0 C4.68002534,0 5.9635317,1.28350636 5.9635317,2.8667917 C5.9635317,3.45241742 5.78793355,3.99702999 5.48651757,4.4508491 L7.02533009,5.98966161 L5.96466991,7.05032179 L4.35685508,5.44250696 L4.35685508,5.44250696 Z" id="Combined-Shape" fill="#333333"></path>
                            <path d="M1.2299483,2.8468 C1.2299483,1.81579941 2.06573941,0.9800083 3.09674,0.9800083 C4.12774059,0.9800083 4.9635317,1.81579941 4.9635317,2.8468 C4.9635317,3.87780059 4.12774059,4.7135917 3.09674,4.7135917 C2.06573941,4.7135917 1.2299483,3.87780059 1.2299483,2.8468 Z" id="Oval" fill="#FFFFFF" fill-rule="nonzero"></path>
                        </g>
                    </g>
                </g>
                <g id="remove-rules" stroke-width="1" transform="translate(4.000000, 100.000000)">
                    <rect id="Path" stroke="#000000" stroke-width="0.5" x="0" y="0" width="78" height="13" rx="2.5"></rect>
                    <text id="Remove-all-constraints" fill="#000000" font-family="Helvetica-Bold, Helvetica" font-size="6" font-weight="bold">
                        <tspan x="6.05371094" y="9">Remove all constraints</tspan>
                    </text>
                </g>
                <g id="dd1-disabled" stroke-width="1" transform="translate(63.000000, 68.000000)">
                    <rect id="Rectangle-path" fill="#E6E6E6" x="0" y="0" width="378" height="22.5"></rect>
                    <rect id="Rectangle-path" stroke="#000000" stroke-width="0.25" x="0" y="0" width="378" height="22.5"></rect>
                    <path d="M7.5,4.5 L60,4.5 C61.65686,4.5 63,5.84314 63,7.5 L63,15 C63,16.65686 61.65686,18 60,18 L7.5,18 C5.84315,18 4.5,16.65686 4.5,15 L4.5,15 L4.5,7.5 C4.5,5.84314 5.84315,4.5 7.5,4.5 L7.5,4.5 Z" id="Shape" fill="#E6E6E6"></path>
                    <path d="M7.5,4.5 L60,4.5 C61.65686,4.5 63,5.84314 63,7.5 L63,15 C63,16.65686 61.65686,18 60,18 L7.5,18 C5.84315,18 4.5,16.65686 4.5,15 L4.5,15 L4.5,7.5 C4.5,5.84314 5.84315,4.5 7.5,4.5 L7.5,4.5 Z" id="Shape" stroke="#999999" stroke-width="0.5"></path>
                    <polygon id="Shape" fill="#999999" points="58.21915 9.78139 56.29738 12.71815 54.37561 9.78139"></polygon>
                    <path d="M49.5,4.5 L49.5,18" id="Shape" stroke="#999999" stroke-width="0.5"></path>
                </g>
                <g id="dd2-disabled" stroke-width="1" transform="translate(130.000000, 72.000000)">
                    <path d="M3.5,0.5 L56,0.5 C57.65686,0.5 59,1.84314 59,3.5 L59,11 C59,12.65686 57.65686,14 56,14 L3.5,14 C1.84314,14 0.5,12.65686 0.5,11 L0.5,11 L0.5,3.5 C0.5,1.84314 1.84314,0.5 3.5,0.5 L3.5,0.5 Z" id="Shape" fill="#E6E6E6"></path>
                    <path d="M3.5,0.5 L56,0.5 C57.65686,0.5 59,1.84314 59,3.5 L59,11 C59,12.65686 57.65686,14 56,14 L3.5,14 C1.84314,14 0.5,12.65686 0.5,11 L0.5,11 L0.5,3.5 C0.5,1.84314 1.84314,0.5 3.5,0.5 L3.5,0.5 Z" id="Shape" stroke="#999999" stroke-width="0.5"></path>
                    <polygon id="Shape" fill="#999999" points="54.21915 5.78139 52.29738 8.71815 50.37561 5.78139"></polygon>
                    <path d="M45.5,0.5 L45.5,14" id="Shape" stroke="#999999" stroke-width="0.5"></path>
                </g>
                <g id="freetext-field" stroke-width="1" transform="translate(193.000000, 72.000000)">
                    <path d="M7.25,0.5 L236.75,0.5 C240.47794,0.5 243.5,3.52208 243.5,7.25 L243.5,7.25 C243.5,10.97792 240.47794,14 236.75,14 L7.25,14 C3.52208,14 0.5,10.97792 0.5,7.25 L0.5,7.25 L0.5,7.25 C0.5,3.52208 3.52208,0.5 7.25,0.5 L7.25,0.5 Z" id="Shape" fill="#E6E6E6"></path>
                    <path d="M7.25,0.5 L236.75,0.5 C240.47794,0.5 243.5,3.52208 243.5,7.25 L243.5,7.25 C243.5,10.97792 240.47794,14 236.75,14 L7.25,14 C3.52208,14 0.5,10.97792 0.5,7.25 L0.5,7.25 L0.5,7.25 C0.5,3.52208 3.52208,0.5 7.25,0.5 L7.25,0.5 Z" id="Shape" stroke="#999999" stroke-width="0.5"></path>
                </g>
                <g id="add-btn" stroke-width="1" transform="translate(9.000000, 72.000000)">
                    <path d="M3,0.5 L42,0.5 C43.65685,0.5 45,1.84314 45,3.5 L45,11 C45,12.65686 43.65685,14 42,14 L3,14 C1.343147,14 0,12.65686 0,11 L0,11 L0,3.5 C0,1.84314 1.343147,0.5 3,0.5 L3,0.5 Z" id="Shape" fill="#FFFFFF"></path>
                    <path d="M3,0.5 L42,0.5 C43.65685,0.5 45,1.84314 45,3.5 L45,11 C45,12.65686 43.65685,14 42,14 L3,14 C1.343147,14 0,12.65686 0,11 L0,11 L0,3.5 C0,1.84314 1.343147,0.5 3,0.5 L3,0.5 Z" id="Shape" stroke="#000000" stroke-width="0.5"></path>
                    <text id="Add" fill="#000000" font-family="Helvetica-Bold, Helvetica" font-size="6" font-weight="bold">
                        <tspan x="28.666" y="9.5">Add</tspan>
                    </text>
                    <path d="M10.156998,7.25 L4.5,7.25" id="Shape" stroke="#000000"></path>
                    <path d="M7.328003,10.078 L7.328003,4.422" id="Shape" stroke="#000000"></path>
                </g>
                <g id="remove-btn" stroke-width="1" transform="translate(9.000000, 50.000000)">
                    <path d="M3,0 L42,0 C43.65685,0 45,1.34314 45,3 L45,10.5 C45,12.15686 43.65685,13.5 42,13.5 L3,13.5 C1.343147,13.5 0,12.15686 0,10.5 L0,10.5 L0,3 C0,1.34314 1.343147,0 3,0 L3,0 Z" id="Shape" fill="#FFFFFF"></path>
                    <path d="M3,0 L42,0 C43.65685,0 45,1.34314 45,3 L45,10.5 C45,12.15686 43.65685,13.5 42,13.5 L3,13.5 C1.343147,13.5 0,12.15686 0,10.5 L0,10.5 L0,3 C0,1.34314 1.343147,0 3,0 L3,0 Z" id="Shape" stroke="#000000" stroke-width="0.5"></path>
                    <text id="Remove" fill="#000000" font-family="Helvetica-Bold, Helvetica" font-size="6" font-weight="bold">
                        <tspan x="17.212" y="9">Remove</tspan>
                    </text>
                    <path d="M10.156998,6.75 L4.5,6.75" id="Shape" stroke="#000000"></path>
                </g>
                <g id="limit-results" stroke-width="1" transform="translate(263.000000, 99.000000)">
                    <text id="Limit-results-to" fill="#000000" font-family="Helvetica-Bold, Helvetica" font-size="6" font-weight="bold">
                        <tspan x="10.5" y="9.5">Limit results to</tspan>
                    </text>
                    <rect id="Rectangle-path" fill="#FFFFFF" x="0.081" y="3.331" width="7.838684" height="7.8387146"></rect>
                    <rect id="Rectangle-path" stroke="#000000" stroke-width="0.5" x="0.081" y="3.331" width="7.838684" height="7.8387146"></rect>
                    <text id="items" fill="#000000" font-family="Helvetica-Bold, Helvetica" font-size="6" font-weight="bold">
                        <tspan x="81" y="9.5">items</tspan>
                    </text>
                    <path d="M59.5,0.5 L76,0.5 C77.65686,0.5 79,1.84314 79,3.5 L79,11 C79,12.65686 77.65686,14 76,14 L59.5,14 C57.84314,14 56.5,12.65686 56.5,11 L56.5,11 L56.5,3.5 C56.5,1.84314 57.84314,0.5 59.5,0.5 L59.5,0.5 Z" id="Shape" fill="#FFFFFF"></path>
                    <path d="M59.5,0.5 L76,0.5 C77.65686,0.5 79,1.84314 79,3.5 L79,11 C79,12.65686 77.65686,14 76,14 L59.5,14 C57.84314,14 56.5,12.65686 56.5,11 L56.5,11 L56.5,3.5 C56.5,1.84314 57.84314,0.5 59.5,0.5 L59.5,0.5 Z" id="Shape" stroke="#999999" stroke-width="0.5"></path>
                    <text id="--" fill="#999999" font-family="Helvetica-Bold, Helvetica" font-size="6" font-weight="bold">
                        <tspan x="60.5" y="9.5">--</tspan>
                    </text>
                    <polygon id="Shape" fill="#999999" points="76.42218 8.03139 74.5004 10.96815 72.57861 8.03139"></polygon>
                    <polygon id="Shape" stroke="#FFFFFF" stroke-width="0.25" points="76.42218 8.03139 74.5004 10.96815 72.57861 8.03139"></polygon>
                    <path d="M70,0.5 L70,14" id="Shape" stroke="#999999" stroke-width="0.5"></path>
                    <polygon id="Shape" fill="#999999" points="72.57861 6.46815 74.5004 3.53139 76.42218 6.46815"></polygon>
                    <polygon id="Shape" stroke="#FFFFFF" stroke-width="0.25" points="72.57861 6.46815 74.5004 3.53139 76.42218 6.46815"></polygon>
                </g>
                <g id="shuffle-btn" stroke-width="1" transform="translate(189.000000, 102.000000)">
                    <text id="Shuffle-results" fill="#000000" font-family="Helvetica-Bold, Helvetica" font-size="6" font-weight="bold">
                        <tspan x="11" y="6.5">Shuffle results</tspan>
                    </text>
                    <rect id="Rectangle-path" fill="#FFFFFF" x="0.581" y="0.331" width="7.8387146" height="7.8387146"></rect>
                    <rect id="Rectangle-path" stroke="#000000" stroke-width="0.5" x="0.581" y="0.331" width="7.8387146" height="7.8387146"></rect>
                </g>
                <g id="breadcrumbs" stroke-width="1" transform="translate(4.000000, 5.000000)">
                    <rect id="Rectangle-path" fill="#E6E6E6" x="142.25" y="0" width="294.75" height="13.5"></rect>
                    <rect id="Rectangle-path" stroke="#FFFFFF" x="142.25" y="0" width="294.75" height="13.5"></rect>
                    <polygon id="Shape" fill="#4C4C4C" points="25.25 0.00284 25.25 13.50014 144.49936 13.49977 148.99899 6.75 144.4996 3e-05"></polygon>
                    <polygon id="Shape" stroke="#FFFFFF" points="25.25 0.00284 25.25 13.50014 144.49936 13.49977 148.99899 6.75 144.4996 3e-05"></polygon>
                    <text id="Editing-Search-&quot;Terror-+-Suspense...&quot;" fill="#FFFFFF" font-family="Helvetica-Bold, Helvetica" font-size="6" font-weight="bold">
                        <tspan x="37.4749985" y="9.00011">Editing Search "Terror + Suspense..."</tspan>
                    </text>
                    <polygon id="Shape" fill="#7F7F7F" points="0.5 0.00284 0.5 13.5 27.49971 13.49982 31.9998 6.74977 27.49971 0"></polygon>
                    <polygon id="Shape" stroke="#FFFFFF" points="0.5 0.00284 0.5 13.5 27.49971 13.49982 31.9998 6.74977 27.49971 0"></polygon>
                    <text id="Home" fill="#FFFFFF" font-family="Helvetica-Bold, Helvetica" font-size="6" font-weight="bold">
                        <tspan x="7.55380085" y="9">Home</tspan>
                    </text>
                    <text id="Discard" fill="#000000" font-family="Helvetica-Bold, Helvetica" font-size="6" font-weight="bold">
                        <tspan x="403.266" y="9">Discard</tspan>
                    </text>
                    <circle id="Oval" fill="#666666" cx="430.25" cy="6.75" r="2.2499955"></circle>
                    <circle id="Oval" stroke="#666666" stroke-width="2" cx="430.25" cy="6.75" r="2.2499955"></circle>
                    <path d="M428.75,8.25 L431.75,5.25" id="Shape" stroke="#FFFFFF"></path>
                    <path d="M428.75,5.25 L431.75,8.25" id="Shape" stroke="#FFFFFF"></path>
                    <text id="Save" fill="#000000" font-family="Helvetica-Bold, Helvetica" font-size="6" font-weight="bold">
                        <tspan x="371.658" y="9">Save</tspan>
                    </text>
                    <path d="M390.895113,3.00080978 C390.322288,3.00091839 390.000125,3.2914131 390,3.88489623 L390,10.0033584 C390.000125,10.5586172 390.289775,10.8493027 390.861837,10.8499279 L397.129289,10.8499279 C397.702295,10.8493027 397.992388,10.5730937 397.99279,10.0033584 L397.99279,3.88489623 C397.992388,3.3058896 397.702295,3.00091839 397.110987,3.00080978 C397.110987,3.00080978 390.893407,2.99898778 390.895113,3.00080978 L390.895113,3.00080978 L390.895113,3.00080978 Z" id="Fill-1" fill="#000000"></path>
                    <polyline id="Fill-3" fill="#FFFFFF" points="396.157643 5.51605088 396.157643 8.97899308 392.625442 8.97899308 391.459133 7.83718454 394.147799 7.83718454 391.507383 5.24854159 392.360901 4.41012802 394.992998 6.98898418 394.992998 4.36934915 396.157643 5.51605088"></polyline>
                </g>
            </g>
        </g>
    </g>
</svg>