<?xml version="1.0" encoding="UTF-8"?>
<svg width="360px" height="360px" viewBox="0 0 360 360" version="1.1" xmlns="http://www.w3.org/2000/svg" xmlns:xlink="http://www.w3.org/1999/xlink">
    <!-- Generator: Sketch 44.1 (41455) - http://www.bohemiancoding.com/sketch -->
    <title>fpm_ux-sidebar-2_2</title>
    <desc>Created with Sketch.</desc>
    <defs>
        <rect id="path-1" x="0" y="0" width="85.6730769" height="58.5"></rect>
        <filter x="-8.5%" y="-9.0%" width="116.9%" height="124.8%" filterUnits="objectBoundingBox" id="filter-2">
            <feMorphology radius="0.25" operator="dilate" in="SourceAlpha" result="shadowSpreadOuter1"></feMorphology>
            <feOffset dx="0" dy="2" in="shadowSpreadOuter1" result="shadowOffsetOuter1"></feOffset>
            <feGaussianBlur stdDeviation="2" in="shadowOffsetOuter1" result="shadowBlurOuter1"></feGaussianBlur>
            <feComposite in="shadowBlurOuter1" in2="SourceAlpha" operator="out" result="shadowBlurOuter1"></feComposite>
            <feColorMatrix values="0 0 0 0 0   0 0 0 0 0   0 0 0 0 0  0 0 0 0.33 0" type="matrix" in="shadowBlurOuter1"></feColorMatrix>
        </filter>
        <rect id="path-3" x="6" y="1" width="104" height="306"></rect>
        <filter x="-6.7%" y="-1.6%" width="113.5%" height="104.6%" filterUnits="objectBoundingBox" id="filter-4">
            <feOffset dx="0" dy="2" in="SourceAlpha" result="shadowOffsetOuter1"></feOffset>
            <feGaussianBlur stdDeviation="2" in="shadowOffsetOuter1" result="shadowBlurOuter1"></feGaussianBlur>
            <feComposite in="shadowBlurOuter1" in2="SourceAlpha" operator="out" result="shadowBlurOuter1"></feComposite>
            <feColorMatrix values="0 0 0 0 0   0 0 0 0 0   0 0 0 0 0  0 0 0 0.5 0" type="matrix" in="shadowBlurOuter1"></feColorMatrix>
        </filter>
        <rect id="path-5" x="0" y="0" width="104" height="306"></rect>
        <rect id="path-7" x="0" y="0.5" width="104" height="13.5"></rect>
    </defs>
    <g id="Sidebar" stroke="none" stroke-width="1" fill="none" fill-rule="evenodd">
        <g id="fpm_ux-sidebar-2_2">
            <polyline id="bracket" stroke="#000000" stroke-width="0.5" points="118.5 19 127.5 19 127.5 5.5 118.5 5.5"></polyline>
            <g id="desc-quick-2" transform="translate(248.000000, 5.000000)">
                <g id="desc" transform="translate(0.500000, 80.500000)">
                    <rect id="Rectangle-path" x="0" y="1" width="103.5" height="45"></rect>
                    <text id="The-input-box-will-n" fill="#000000" font-family="Helvetica-Bold, Helvetica" font-size="6" font-weight="bold">
                        <tspan x="0" y="6">The input box will not clear it's con-</tspan>
                    </text>
                    <text id="tent-until-the-main-content-window-is" fill="#000000" font-family="Helvetica-Bold, Helvetica" font-size="6" font-weight="bold">
                        <tspan x="0" y="13">tent until the main content window is</tspan>
                    </text>
                    <text id="populated-again." fill="#000000" font-family="Helvetica-Bold, Helvetica" font-size="6" font-weight="bold">
                        <tspan x="0" y="20">populated again.</tspan>
                    </text>
                </g>
            </g>
            <g id="desc-quick-1" transform="translate(136.000000, 5.000000)">
                <g id="desc" transform="translate(0.000000, 80.500000)" font-size="6" font-family="Helvetica-Bold, Helvetica" fill="#000000" font-weight="bold">
                    <text id="As-you-type,-property-matches-will">
                        <tspan x="0" y="6">As you type, property matches will</tspan>
                    </text>
                    <text id="appear-on-a-dropdown">
                        <tspan x="0" y="13">appear on a dropdown below in in-</tspan>
                    </text>
                    <text id="put-box.-At-any-time-the-user-can">
                        <tspan x="0" y="20">put box. At any time the user can</tspan>
                    </text>
                    <text id="click-on-a-match-to">
                        <tspan x="0" y="27">click on a match to display the re-</tspan>
                    </text>
                    <text id="sults-on-the-main-content-panel.">
                        <tspan x="0" y="34">sults on the main content panel.</tspan>
                    </text>
                </g>
                <g id="ui">
                    <g id="btn">
                        <path d="M7.13942308,0.5 L78.5336538,0.5 C82.4766673,0.5 85.6730769,3.52208 85.6730769,7.25 L85.6730769,7.25 C85.6730769,10.97792 82.4766673,14 78.5336538,14 L7.13942308,14 C3.19640962,14 0,10.97792 0,7.25 L0,7.25 L0,7.25 C0,3.52208 3.19640962,0.5 7.13942308,0.5 L7.13942308,0.5 Z" id="Shape" fill="#FFFFFF"></path>
                        <path d="M7.13942308,0.5 L78.5336538,0.5 C82.4766673,0.5 85.6730769,3.52208 85.6730769,7.25 L85.6730769,7.25 C85.6730769,10.97792 82.4766673,14 78.5336538,14 L7.13942308,14 C3.19640962,14 0,10.97792 0,7.25 L0,7.25 L0,7.25 C0,3.52208 3.19640962,0.5 7.13942308,0.5 L7.13942308,0.5 Z" id="Shape" stroke="#999999" stroke-width="0.5"></path>
                        <g id="Group" transform="translate(5.288462, 3.500000)" font-size="6" font-family="Helvetica-Bold, Helvetica" fill="#000000" font-weight="bold">
                            <text id="Joh">
                                <tspan x="0" y="6">Joh</tspan>
                            </text>
                        </g>
                        <ellipse id="Oval" fill="#FFFFFF" cx="93.7080904" cy="6.09679" rx="2.50332098" ry="2.3667762"></ellipse>
                        <ellipse id="Oval" stroke="#000000" cx="93.7080904" cy="6.09679" rx="2.50332098" ry="2.3667762"></ellipse>
                        <path d="M97.3024038,9.75 L95.7737317,8.196266" id="Shape" stroke="#000000" stroke-width="1.5"></path>
                        <polygon id="Shape" fill="#4C4C4C" points="80.9136202 6.06339 78.8809683 9.00016 76.8483163 6.06339"></polygon>
                    </g>
                    <g id="overlay" transform="translate(0.000000, 14.000000)">
                        <g id="Rectangle-path">
                            <use fill="black" fill-opacity="1" filter="url(#filter-2)" xlink:href="#path-1"></use>
                            <use stroke="#4A4A4A" stroke-width="0.5" fill="#FFFFFF" fill-rule="evenodd" xlink:href="#path-1"></use>
                        </g>
                        <rect id="Rectangle-path" stroke="#000000" stroke-width="0.5" x="0" y="0" width="85.6730769" height="58.5"></rect>
                        <g id="Group" transform="translate(5.288462, 20.750000)" font-size="6" font-family="Helvetica-Bold, Helvetica" fill="#000000" font-weight="bold">
                            <text id="Johannes-Brandenburg">
                                <tspan x="0" y="6">Johannes Brandenburg</tspan>
                            </text>
                        </g>
                        <rect id="Rectangle-path" fill="#000000" x="0" y="29.25" width="85.6730769" height="9"></rect>
                        <g id="Group" transform="translate(5.288462, 29.750000)" font-size="6" font-family="Helvetica" fill="#FFFFFF" font-weight="normal">
                            <text id="The-Johnassons">
                                <tspan x="0" y="6">The Johnassons</tspan>
                            </text>
                        </g>
                        <g id="Group" transform="translate(5.288462, 11.750000)" font-size="6" font-family="Helvetica-Bold, Helvetica" fill="#000000" font-weight="bold">
                            <text id="John-Waters">
                                <tspan x="0" y="6">John Waters</tspan>
                            </text>
                        </g>
                        <g id="Group" transform="translate(5.288462, 2.750000)" font-size="6" font-family="Helvetica-Bold, Helvetica" fill="#000000" font-weight="bold">
                            <text id="John-Smith">
                                <tspan x="0" y="6">John Smith</tspan>
                            </text>
                        </g>
                        <g id="Group" transform="translate(5.288462, 38.750000)" font-size="6" font-family="Helvetica" fill="#000000" font-weight="normal">
                            <text id="Ann-Johnsson">
                                <tspan x="0" y="6">Ann Johnsson</tspan>
                            </text>
                        </g>
                        <g id="Group" transform="translate(5.288462, 47.750000)" font-size="6" font-family="Helvetica" fill="#000000" font-weight="normal">
                            <text id="Paul-John-Kerry">
                                <tspan x="0" y="6">Paul John-Kerry</tspan>
                            </text>
                        </g>
                    </g>
                </g>
            </g>
            <polyline id="bracket" stroke="#000000" stroke-width="0.5" points="118.5 214.75 127.5 214.75 127.5 165.25 118.5 165.25"></polyline>
            <g id="desc-user-playlist" transform="translate(136.000000, 148.000000)">
                <g id="ui" transform="translate(0.500000, -10.500000)">
                    <g id="playlist" transform="translate(0.000000, 10.000000)">
                        <rect id="Rectangle-path" x="0" y="0.5" width="10" height="10"></rect>
                        <path d="M7.25,3.62744 C7.25,3.10645 7.19286,3.04196 6.77539,2.52634 L6.77098,2.52103 C6.3513,2 6.34694,2 5.91624,2 L2.75,2 L2.75,7.5 L7.25,7.5 L7.25,3.62744 L7.25,3.62744 Z" id="Shape" fill="#FFFFFF"></path>
                        <path d="M7.25,3.62744 C7.25,3.10645 7.19286,3.04196 6.77539,2.52634 L6.77098,2.52103 C6.3513,2 6.34694,2 5.91624,2 L2.75,2 L2.75,7.5 L7.25,7.5 L7.25,3.62744 L7.25,3.62744 Z M7.25,3.60062 C7.25,3.10645 7.24559,3.10645 6.34694,3.10645 L6.34694,3.10645 C6.34694,2.0054 6.34694,2 5.94261,2 L7.25,3.60062 Z" id="Shape" stroke="#000000" stroke-width="0.5"></path>
                        <text id="Untitled-Playlist" fill="#000000" font-family="Helvetica" font-size="6" font-weight="normal">
                            <tspan x="11.5" y="7.25">Untitled Playlist</tspan>
                        </text>
                    </g>
                    <g id="starred" transform="translate(0.500000, 0.500000)">
                        <rect id="Rectangle-path" x="0" y="0.25" width="9.33962264" height="9"></rect>
                        <polygon id="Shape" fill="#FFFFFF" points="4.66981132 1.5 5.42702642 3.7457 7.87739057 3.7457 5.8949934 5.1336 6.65220849 7.3793 4.66981132 5.9914 2.68741415 7.3793 3.44462925 5.1336 1.46223208 3.7457 3.91259623 3.7457"></polygon>
                        <polygon id="Shape" stroke="#000000" stroke-width="0.5" points="4.66981132 1.5 5.42702642 3.7457 7.87739057 3.7457 5.8949934 5.1336 6.65220849 7.3793 4.66981132 5.9914 2.68741415 7.3793 3.44462925 5.1336 1.46223208 3.7457 3.91259623 3.7457"></polygon>
                        <text id="Starred-Songs" fill="#000000" font-family="Helvetica" font-size="6" font-weight="normal">
                            <tspan x="11.4150943" y="7.25">Starred Songs</tspan>
                        </text>
                    </g>
                </g>
                <g id="desc" transform="translate(0.500000, 17.250000)" font-size="6" font-family="Helvetica-Bold, Helvetica" fill="#000000" font-weight="bold">
                    <text id="Playlists-are-user-defined-sets-of">
                        <tspan x="0" y="6">Playlists are user defined sets of</tspan>
                    </text>
                    <text id="songs.-They-are-populated-by-drag">
                        <tspan x="0" y="13">songs. They are populated by drag</tspan>
                    </text>
                    <text id="and-drop-of-single-a">
                        <tspan x="0" y="20">and drop of single and multiple se-</tspan>
                    </text>
                    <text id="lection-of-items-fro">
                        <tspan x="0" y="27">lection of items from the main con-</tspan>
                    </text>
                    <text id="tent-panel.">
                        <tspan x="0" y="34">tent panel.</tspan>
                    </text>
                </g>
                <g id="desc" transform="translate(0.000000, 56.250000)">
                    <rect id="Rectangle-path" x="0" y="1" width="107.40566" height="45"></rect>
                    <text id="Starred-Songs-is-a-built-in-playlist" fill="#000000" font-family="Helvetica-Bold, Helvetica" font-size="6" font-weight="bold">
                        <tspan x="0" y="6">Starred Songs is a built-in playlist</tspan>
                    </text>
                    <text id="that-contains-the-songs-whose" fill="#000000" font-family="Helvetica-Bold, Helvetica" font-size="6" font-weight="bold">
                        <tspan x="0" y="13">that contains the songs whose</tspan>
                    </text>
                    <text id="Starred-icon-has-been-toggled-by-the" fill="#000000" font-family="Helvetica-Bold, Helvetica" font-size="6" font-weight="bold">
                        <tspan x="0" y="20">Starred icon has been toggled by the</tspan>
                    </text>
                    <text id="user.-Items-can-be-dragged-on-to-it" fill="#000000" font-family="Helvetica-Bold, Helvetica" font-size="6" font-weight="bold">
                        <tspan x="0" y="27">user. Items can be dragged on to it</tspan>
                    </text>
                    <text id="as-well." fill="#000000" font-family="Helvetica-Bold, Helvetica" font-size="6" font-weight="bold">
                        <tspan x="0" y="34">as well.</tspan>
                    </text>
                </g>
            </g>
            <g id="desc-user-search" transform="translate(249.000000, 147.000000)">
                <g id="ui">
                    <rect id="Rectangle-path" x="0" y="0.25" width="9" height="9"></rect>
                    <path d="M2.25,1.75 L6.75,1.75 L6.75,6.54999 C5.4,5.95001 3.6,8.35 2.25,7.15 L2.25,1.75 Z" id="Shape" stroke="#000000" stroke-width="0.5"></path>
                    <text id="Untitled-Search-(+1)" fill="#000000" font-family="Helvetica" font-size="6" font-weight="normal">
                        <tspan x="11" y="7.25">Untitled Search </tspan>
                        <tspan x="53.6884766" y="7.25" font-family="Helvetica-Bold, Helvetica" font-weight="bold">(+1)</tspan>
                    </text>
                    <path d="M2.25,1.75 L6.75,1.75 L6.75,6.54999 C5.4,5.95001 3.6,8.35 2.25,7.15 L2.25,1.75 Z" id="Shape" fill="#FFFFFF"></path>
                </g>
                <g id="desc" transform="translate(0.000000, 17.250000)" font-size="6" font-family="Helvetica-Bold, Helvetica" fill="#000000" font-weight="bold">
                    <text id="Any-Search-can-be-saved-and-edited">
                        <tspan x="0" y="6">Any Search can be saved and edited</tspan>
                    </text>
                    <text id="from-the-Search-Constraint-Editor.">
                        <tspan x="0" y="13">from the Search Constraint Editor.</tspan>
                    </text>
                    <text id="Each-Search-is-listed-as-a-separate">
                        <tspan x="0" y="20">Each Search is listed as a separate</tspan>
                    </text>
                    <text id="item-in-User-Selections-where-it-can">
                        <tspan x="0" y="27">item in User Selections where it can</tspan>
                    </text>
                    <text id="be-accessed-at-any-time.">
                        <tspan x="0" y="34">be accessed at any time.</tspan>
                    </text>
                    <text id="On-sign-in-or-refresh,-the-number-of">
                        <tspan x="0" y="45">On sign-in or refresh, the number of</tspan>
                    </text>
                    <text id="results-is-checked.-If-it-has-changed,">
                        <tspan x="0" y="52">results is checked. If it has changed,</tspan>
                    </text>
                    <text id="the-difference-is-displayed.">
                        <tspan x="0" y="59">the difference is displayed.</tspan>
                    </text>
                </g>
            </g>
            <polyline id="bracket" stroke="#000000" stroke-width="0.5" points="118.5 289 127.5 289 127.5 275.5 118.5 275.5"></polyline>
            <g id="desc-context-1" transform="translate(136.000000, 275.000000)">
                <g id="desc" transform="translate(0.500000, 22.000000)">
                    <rect id="Rectangle-path" x="0" y="1" width="103.5" height="40.5"></rect>
                    <text id="The-edit,-delete-and-optionally-ree" fill="#000000" font-family="Helvetica-Bold, Helvetica" font-size="6" font-weight="bold">
                        <tspan x="0" y="6">The edit, delete and optionally ree</tspan>
                    </text>
                    <text id="name-are-enabled-depending-if-a" fill="#000000" font-family="Helvetica-Bold, Helvetica" font-size="6" font-weight="bold">
                        <tspan x="0" y="13">name are enabled depending if a</tspan>
                    </text>
                    <text id="User-List-item-is-se" fill="#000000" font-family="Helvetica-Bold, Helvetica" font-size="6" font-weight="bold">
                        <tspan x="0" y="20">User List item is selected in the side-</tspan>
                    </text>
                    <text id="bar.-If-enabled,-clicking-on-them-will" fill="#000000" font-family="Helvetica-Bold, Helvetica" font-size="6" font-weight="bold">
                        <tspan x="0" y="27">bar. If enabled, clicking on them will</tspan>
                    </text>
                    <text id="affect-the-selected-item." fill="#000000" font-family="Helvetica-Bold, Helvetica" font-size="6" font-weight="bold">
                        <tspan x="0" y="34">affect the selected item.</tspan>
                    </text>
                </g>
                <g id="ui" transform="translate(0.000000, 67.000000)">
                    <path d="M3.5,0.5 L20,0.5 C21.65686,0.5 23,1.84314 23,3.5 L23,11 C23,12.65686 21.65686,14 20,14 L3.5,14 C1.84314,14 0.5,12.65686 0.5,11 L0.5,11 L0.5,3.5 C0.5,1.84314 1.84314,0.5 3.5,0.5 L3.5,0.5 Z" id="Shape" fill="#FFFFFF"></path>
                    <path d="M3.5,0.5 L20,0.5 C21.65686,0.5 23,1.84314 23,3.5 L23,11 C23,12.65686 21.65686,14 20,14 L3.5,14 C1.84314,14 0.5,12.65686 0.5,11 L0.5,11 L0.5,3.5 C0.5,1.84314 1.84314,0.5 3.5,0.5 L3.5,0.5 Z" id="Shape" stroke="#000000" stroke-width="0.5" stroke-dasharray="2,2"></path>
                    <g id="Group" transform="translate(5.500000, 3.500000)" font-size="6" font-family="Helvetica-Bold, Helvetica" fill="#000000" font-weight="bold">
                        <text id="Edit">
                            <tspan x="0.8050003" y="6">Edit</tspan>
                        </text>
                    </g>
                    <path d="M30.5,0.5 L51.5,0.5 C53.15686,0.5 54.5,1.84314 54.5,3.5 L54.5,11 C54.5,12.65686 53.15686,14 51.5,14 L30.5,14 C28.84314,14 27.5,12.65686 27.5,11 L27.5,11 L27.5,3.5 C27.5,1.84314 28.84314,0.5 30.5,0.5 L30.5,0.5 Z" id="Shape" fill="#FFFFFF"></path>
                    <path d="M30.5,0.5 L51.5,0.5 C53.15686,0.5 54.5,1.84314 54.5,3.5 L54.5,11 C54.5,12.65686 53.15686,14 51.5,14 L30.5,14 C28.84314,14 27.5,12.65686 27.5,11 L27.5,11 L27.5,3.5 C27.5,1.84314 28.84314,0.5 30.5,0.5 L30.5,0.5 Z" id="Shape" stroke="#000000" stroke-width="0.5" stroke-dasharray="2,2"></path>
                    <g id="Group" transform="translate(31.500000, 3.500000)" font-size="6" font-family="Helvetica-Bold, Helvetica" fill="#000000" font-weight="bold">
                        <text id="Delete">
                            <tspan x="0.6079998" y="6">Delete</tspan>
                        </text>
                    </g>
                    <path d="M62,0.5 L87.5,0.5 C89.15686,0.5 90.5,1.84314 90.5,3.5 L90.5,11 C90.5,12.65686 89.15686,14 87.5,14 L62,14 C60.34314,14 59,12.65686 59,11 L59,11 L59,3.5 C59,1.84314 60.34314,0.5 62,0.5 L62,0.5 Z" id="Shape" fill="#FFFFFF"></path>
                    <path d="M62,0.5 L87.5,0.5 C89.15686,0.5 90.5,1.84314 90.5,3.5 L90.5,11 C90.5,12.65686 89.15686,14 87.5,14 L62,14 C60.34314,14 59,12.65686 59,11 L59,11 L59,3.5 C59,1.84314 60.34314,0.5 62,0.5 L62,0.5 Z" id="Shape" stroke="#000000" stroke-width="0.5" stroke-dasharray="2,2"></path>
                    <g id="Group" transform="translate(63.000000, 3.500000)" font-size="6" font-family="Helvetica-Bold, Helvetica" fill="#000000" font-weight="bold">
                        <text id="Rename">
                            <tspan x="0.302" y="6">Rename</tspan>
                        </text>
                    </g>
                </g>
                <g id="ui">
                    <path d="M3.5,0.5 L11,0.5 C12.65686,0.5 14,1.84314 14,3.5 L14,11 C14,12.65686 12.65686,14 11,14 L3.5,14 C1.84314,14 0.5,12.65686 0.5,11 L0.5,11 L0.5,3.5 C0.5,1.84314 1.84314,0.5 3.5,0.5 L3.5,0.5 L3.5,0.5 Z" id="Shape" fill="#FFFFFF"></path>
                    <path d="M3.5,0.5 L11,0.5 C12.65686,0.5 14,1.84314 14,3.5 L14,11 C14,12.65686 12.65686,14 11,14 L3.5,14 C1.84314,14 0.5,12.65686 0.5,11 L0.5,11 L0.5,3.5 C0.5,1.84314 1.84314,0.5 3.5,0.5 L3.5,0.5 L3.5,0.5 Z" id="Shape" stroke="#000000" stroke-width="0.5" stroke-dasharray="2,2"></path>
                    <g id="Group" transform="translate(4.500000, 3.500000)" font-size="6" font-family="Helvetica-Bold, Helvetica" fill="#000000" font-weight="bold">
                        <text id="...">
                            <tspan x="0.2480001" y="6">...</tspan>
                        </text>
                    </g>
                    <g id="Group" transform="translate(20.500000, 3.500000)" font-size="6" font-family="Helvetica-Bold, Helvetica" fill="#000000" font-weight="bold">
                        <text id="Contextual-buttons">
                            <tspan x="0" y="6">Contextual buttons</tspan>
                        </text>
                    </g>
                </g>
            </g>
            <g id="desc-context-2" transform="translate(249.000000, 275.000000)">
                <g id="desc" transform="translate(0.000000, 22.000000)" font-size="6" font-family="Helvetica-Bold, Helvetica" fill="#000000" font-weight="bold">
                    <text id="The-content-of-a-User-Playlist-can-be">
                        <tspan x="0" y="6">The content of a User Playlist can be</tspan>
                    </text>
                    <text id="mailed-to-a-friend.">
                        <tspan x="0" y="13">mailed to a friend. This option re-</tspan>
                    </text>
                    <text id="veals-the-utility-panel-where-the-the">
                        <tspan x="0" y="20">veals the utility panel where the the</tspan>
                    </text>
                    <text id="destination-email-must-be-entered.">
                        <tspan x="0" y="27">destination email must be entered.</tspan>
                    </text>
                </g>
                <g id="ui" transform="translate(0.000000, 67.000000)">
                    <path d="M3,0.5 L87,0.5 C88.65686,0.5 90,1.84314 90,3.5 L90,11 C90,12.65686 88.65686,14 87,14 L3,14 C1.34314,14 0,12.65686 0,11 L0,11 L0,3.5 C0,1.84314 1.34314,0.5 3,0.5 L3,0.5 Z" id="Shape" fill="#FFFFFF"></path>
                    <path d="M3,0.5 L87,0.5 C88.65686,0.5 90,1.84314 90,3.5 L90,11 C90,12.65686 88.65686,14 87,14 L3,14 C1.34314,14 0,12.65686 0,11 L0,11 L0,3.5 C0,1.84314 1.34314,0.5 3,0.5 L3,0.5 Z" id="Shape" stroke="#000000" stroke-width="0.5" stroke-dasharray="2,2"></path>
                    <text id="Suggest-this-list-to-a-friend..." fill="#000000" font-family="Helvetica-Bold, Helvetica" font-size="6" font-weight="bold">
                        <tspan x="5.4840012" y="9.5">Suggest this list to a friend...</tspan>
                    </text>
                </g>
            </g>
            <g id="sidebar-shadow">
                <use fill="black" fill-opacity="1" filter="url(#filter-4)" xlink:href="#path-3"></use>
                <use fill="#FFFFFF" fill-rule="evenodd" xlink:href="#path-3"></use>
                <rect stroke="#000000" stroke-width="1" x="6.5" y="1.5" width="103" height="305"></rect>
            </g>
            <g id="sidebar-2" transform="translate(6.000000, 1.000000)">
                <g id="Group-2">
                    <mask id="mask-6" fill="white">
                        <use xlink:href="#path-5"></use>
                    </mask>
                    <g id="Rectangle-path">
                        <use fill="#FFFFFF" fill-rule="evenodd" xlink:href="#path-5"></use>
                        <rect stroke="#000000" stroke-width="0.5" x="-0.25" y="-0.25" width="104.5" height="306.5"></rect>
                    </g>
                    <g id="sidebar-statusbar" mask="url(#mask-6)">
                        <g transform="translate(0.000000, 292.000000)">
                            <g id="Rectangle-path" fill="none">
                                <use fill="#FFFFFF" fill-rule="evenodd" xlink:href="#path-7"></use>
                                <rect stroke="#000000" stroke-width="0.25" x="-0.125" y="0.375" width="104.25" height="13.75"></rect>
                            </g>
                            <text id="Application-Status" fill="#000000" fill-rule="evenodd" font-family="Helvetica-Bold, Helvetica" font-size="6" font-weight="bold">
                                <tspan x="5" y="9.5">Application Status</tspan>
                            </text>
                        </g>
                    </g>
                    <g id="sidebar-actions" mask="url(#mask-6)">
                        <g transform="translate(4.000000, 274.000000)">
                            <g id="btn-more-2" transform="translate(52.250000, 0.500000)">
                                <path d="M3,0 L10.5,0 C12.15685,0 13.5,1.34314 13.5,3 L13.5,10.5 C13.5,12.15686 12.15685,13.5 10.5,13.5 L3,13.5 C1.343147,13.5 0,12.15686 0,10.5 L0,10.5 L0,3 C0,1.34314 1.343147,0 3,0 L3,0 L3,0 Z" id="Shape" fill="#FFFFFF"></path>
                                <path d="M3,0 L10.5,0 C12.15685,0 13.5,1.34314 13.5,3 L13.5,10.5 C13.5,12.15686 12.15685,13.5 10.5,13.5 L3,13.5 C1.343147,13.5 0,12.15686 0,10.5 L0,10.5 L0,3 C0,1.34314 1.343147,0 3,0 L3,0 L3,0 Z" id="Shape" stroke="#000000" stroke-width="0.5" stroke-dasharray="2,2"></path>
                                <text id="..." fill="#000000" font-family="Helvetica-Bold, Helvetica" font-size="6" font-weight="bold">
                                    <tspan x="4.2480001" y="9">...</tspan>
                                </text>
                            </g>
                            <g id="btn-more-1" transform="translate(34.250000, 0.500000)">
                                <path d="M3,0 L10.5,0 C12.156853,0 13.5,1.34314 13.5,3 L13.5,10.5 C13.5,12.15686 12.156853,13.5 10.5,13.5 L3,13.5 C1.343147,13.5 0,12.15686 0,10.5 L0,10.5 L0,3 C0,1.34314 1.343147,0 3,0 L3,0 L3,0 Z" id="Shape" fill="#FFFFFF"></path>
                                <path d="M3,0 L10.5,0 C12.156853,0 13.5,1.34314 13.5,3 L13.5,10.5 C13.5,12.15686 12.156853,13.5 10.5,13.5 L3,13.5 C1.343147,13.5 0,12.15686 0,10.5 L0,10.5 L0,3 C0,1.34314 1.343147,0 3,0 L3,0 L3,0 Z" id="Shape" stroke="#000000" stroke-width="0.5" stroke-dasharray="2,2"></path>
                                <text id="..." fill="#000000" font-family="Helvetica-Bold, Helvetica" font-size="6" font-weight="bold">
                                    <tspan x="4.2480001" y="9">...</tspan>
                                </text>
                            </g>
                            <g id="btn-new" transform="translate(0.500000, 0.500000)">
                                <path d="M3,0 L26.25,0 C27.906853,0 29.25,1.34314 29.25,3 L29.25,10.5 C29.25,12.15686 27.906853,13.5 26.25,13.5 L3,13.5 C1.343147,13.5 0,12.15686 0,10.5 L0,10.5 L0,3 C0,1.34314 1.343147,0 3,0 L3,0 Z" id="Shape" fill="#FFFFFF"></path>
                                <path d="M3,0 L26.25,0 C27.906853,0 29.25,1.34314 29.25,3 L29.25,10.5 C29.25,12.15686 27.906853,13.5 26.25,13.5 L3,13.5 C1.343147,13.5 0,12.15686 0,10.5 L0,10.5 L0,3 C0,1.34314 1.343147,0 3,0 L3,0 Z" id="Shape" stroke="#000000" stroke-width="0.5"></path>
                                <text id="New" fill="#000000" font-family="Helvetica-Bold, Helvetica" font-size="6" font-weight="bold">
                                    <tspan x="5" y="9">New</tspan>
                                </text>
                                <polygon id="Shape" fill="#000000" points="24.42216 5.7814 22.500385 8.71817 20.57861 5.7814"></polygon>
                            </g>
                        </g>
                    </g>
                    <g id="sidebar-search" mask="url(#mask-6)">
                        <g transform="translate(6.000000, 204.000000)">
                            <rect id="Rectangle-path" stroke="none" fill="#FFFFFF" fill-rule="evenodd" x="0.75" y="0.75" width="9" height="9"></rect>
                            <text id="Untitled-Search-(+1)" stroke="none" fill="#000000" fill-rule="evenodd" font-family="Helvetica" font-size="6" font-weight="normal">
                                <tspan x="11.75" y="7.75">Untitled Search (+1)</tspan>
                            </text>
                            <path d="M3,2.25 L7.5,2.25 L7.5,7.04999 C6.150002,6.45001 4.349998,8.85 3,7.65 L3,2.25 Z" id="Shape" stroke="none" fill="#FFFFFF" fill-rule="evenodd"></path>
                            <path d="M3,2.25 L7.5,2.25 L7.5,7.04999 C6.150002,6.45001 4.349998,8.85 3,7.65 L3,2.25 Z" id="Shape" stroke="#000000" stroke-width="0.5" fill="none"></path>
                        </g>
                    </g>
                    <g id="sidebar-playlist" mask="url(#mask-6)">
                        <g transform="translate(7.000000, 196.000000)">
                            <text id="Untitled-Playlist" stroke="none" fill="#000000" fill-rule="evenodd" font-family="Helvetica" font-size="6" font-weight="normal">
                                <tspan x="10.75" y="7">Untitled Playlist</tspan>
                            </text>
                            <rect id="Rectangle-path" stroke="none" fill="#FFFFFF" fill-rule="evenodd" x="0" y="0" width="9" height="9"></rect>
                            <path d="M6.5,3.37744 C6.5,2.85645 6.442848,2.79196 6.025387,2.27634 L6.020973,2.27103 C5.601303,1.75 5.59694,1.75 5.166245,1.75 L2,1.75 L2,7.25 L6.5,7.25 L6.5,3.37744 L6.5,3.37744 Z" id="Shape" stroke="none" fill="#FFFFFF" fill-rule="evenodd"></path>
                            <path d="M6.5,3.37744 C6.5,2.85645 6.442848,2.79196 6.025387,2.27634 L6.020973,2.27103 C5.601303,1.75 5.59694,1.75 5.166245,1.75 L2,1.75 L2,7.25 L6.5,7.25 L6.5,3.37744 L6.5,3.37744 Z M6.5,3.35062 C6.5,2.85645 6.49559,2.85645 5.59694,2.85645 L5.59694,2.85645 C5.59694,1.7554 5.59694,1.75 5.192616,1.75 L6.5,3.35062 Z" id="Shape" stroke="#000000" stroke-width="0.5" fill="none"></path>
                            <g id="speaker" stroke="none" fill="none" transform="translate(86.000000, 1.000000)">
                                <polygon id="Shape" fill="#000000" fill-rule="evenodd" points="0 2.25 0 4.25 1.71428 4.25 3.42856 6.25 3.42856 0.25 1.71428 2.25"></polygon>
                                <path d="M4.285995,3.25 L6,3.25" id="Shape" stroke="#000000" stroke-width="0.5"></path>
                                <path d="M4.285995,4.25 L5.429,5.25" id="Shape" stroke="#000000" stroke-width="0.5"></path>
                                <path d="M4.285995,2.25 L5.429,1.25" id="Shape" stroke="#000000" stroke-width="0.5"></path>
                            </g>
                        </g>
                    </g>
                    <g id="sidebar-starred" mask="url(#mask-6)">
                        <g transform="translate(6.000000, 186.000000)">
                            <rect id="Rectangle-path" stroke="none" fill="#FFFFFF" fill-rule="evenodd" x="0.75" y="0.75" width="9" height="9"></rect>
                            <text id="Starred-Songs" stroke="none" fill="#000000" fill-rule="evenodd" font-family="Helvetica" font-size="6" font-weight="normal">
                                <tspan x="11.75" y="7.75">Starred Songs</tspan>
                            </text>
                            <polygon id="Shape" stroke="none" fill="#FFFFFF" fill-rule="evenodd" points="5.25 2 5.979671 4.2457 8.340935 4.2457 6.43063 5.6336 7.160301 7.8793 5.25 6.4914 3.339699 7.8793 4.06937 5.6336 2.159065 4.2457 4.520329 4.2457"></polygon>
                            <polygon id="Shape" stroke="#000000" stroke-width="0.5" fill="none" points="5.25 2 5.979671 4.2457 8.340935 4.2457 6.43063 5.6336 7.160301 7.8793 5.25 6.4914 3.339699 7.8793 4.06937 5.6336 2.159065 4.2457 4.520329 4.2457"></polygon>
                        </g>
                    </g>
                    <g id="sidebar-downloads" mask="url(#mask-6)">
                        <g transform="translate(6.000000, 173.000000)">
                            <rect id="Rectangle-path" stroke="none" fill="#FFFFFF" fill-rule="evenodd" x="0.75" y="0.25" width="9" height="9"></rect>
                            <text id="Downloads-(3)" stroke="none" fill="#000000" fill-rule="evenodd" font-family="Helvetica" font-size="6" font-weight="normal">
                                <tspan x="11.75" y="7.25">Downloads (3)</tspan>
                            </text>
                            <polygon id="Shape" stroke="none" fill="#FFFFFF" fill-rule="evenodd" points="4.071453 2.4289 6.428585 2.4289 6.428585 4.64319 7.714298 4.64319 5.25002 7.07172 2.78574 4.64319 4.071453 4.64319"></polygon>
                            <polygon id="Shape" stroke="#000000" stroke-width="0.5" fill="none" points="4.071453 2.4289 6.428585 2.4289 6.428585 4.64319 7.714298 4.64319 5.25002 7.07172 2.78574 4.64319 4.071453 4.64319"></polygon>
                            <g id="waiting-wheel" stroke="none" fill="none" transform="translate(87.000000, 1.000000)" fill-rule="evenodd">
                                <path d="M2.77867,0.75876 L2.77867,1.96475 C2.77867,2.10742 2.87758,2.2232 2.999435,2.2232 C3.12129,2.2232 3.2202,2.10742 3.2202,1.96475 L3.2202,0.75876 C3.2202,0.61609 3.12129,0.5003 2.999435,0.5003 C2.87758,0.5003 2.77867,0.61609 2.77867,0.75876" id="Shape" fill="#000000"></path>
                                <path d="M2.77867,5.03577 L2.77867,6.24176 C2.77867,6.38443 2.87758,6.50021 2.999435,6.50021 C3.12129,6.50021 3.2202,6.38443 3.2202,6.24176 L3.2202,5.03577 C3.2202,4.8931 3.12129,4.77731 2.999435,4.77731 C2.87758,4.77731 2.77867,4.8931 2.77867,5.03577" id="Shape" fill="#999999"></path>
                                <path d="M5.74133,3.279 L4.5354,3.279 C4.39276,3.279 4.27699,3.3779 4.27699,3.49976 C4.27699,3.62161 4.39276,3.72052 4.5354,3.72052 L5.74133,3.72052 C5.88397,3.72052 5.99974,3.62161 5.99974,3.49976 C5.99974,3.3779 5.88397,3.279 5.74133,3.279" id="Shape" fill="#999999"></path>
                                <path d="M1.46434,3.279 L0.25841,3.279 C0.11577,3.279 0,3.3779 0,3.49976 C0,3.62161 0.11577,3.72052 0.25841,3.72052 L1.46434,3.72052 C1.60698,3.72052 1.72275,3.62161 1.72275,3.49976 C1.72275,3.3779 1.60698,3.279 1.46434,3.279" id="Shape" fill="#666666"></path>
                                <path d="M4.17975,1.03113 L3.57678,2.0756 C3.50546,2.19916 3.53322,2.34885 3.63875,2.40979 C3.74428,2.4707 3.88782,2.41986 3.95914,2.29633 L4.5621,1.25186 C4.63342,1.1283 4.60567,0.9786 4.50014,0.91766 C4.39461,0.85675 4.25107,0.9076 4.17975,1.03113" id="Shape" fill="#999999"></path>
                                <path d="M2.04176,4.73514 L1.4388,5.7796 C1.36748,5.90317 1.39523,6.05286 1.50076,6.1138 C1.60629,6.17471 1.74983,6.12387 1.82115,6.00034 L2.42412,4.95587 C2.49544,4.8323 2.46768,4.68262 2.36215,4.62167 C2.25662,4.56076 2.11308,4.6116 2.04176,4.73514" id="Shape" fill="#999999"></path>
                                <path d="M5.3204,2.07162 L4.22934,2.58694 C4.10028,2.64789 4.030045,2.77042 4.072556,2.86041 C4.11507,2.95044 4.2543,2.97403 4.38336,2.91306 L5.47443,2.39774 C5.603485,2.3368 5.67372,2.21426 5.63121,2.12427 C5.5887,2.03424 5.44946,2.01065 5.3204,2.07162" id="Shape" fill="#999999"></path>
                                <path d="M1.61639,4.2106 L0.52533,4.72592 C0.39627,4.78687 0.326035,4.9094 0.368546,4.99939 C0.41106,5.08942 0.55029,5.113 0.67935,5.05203 L1.77042,4.53671 C1.899475,4.47577 1.96971,4.35324 1.9272,4.26324 C1.88469,4.17322 1.74545,4.14963 1.61639,4.2106" id="Shape" fill="#7F7F7F"></path>
                                <path d="M5.47443,4.72592 L4.38336,4.2106 C4.2543,4.14963 4.11507,4.17322 4.072556,4.26324 C4.030045,4.35324 4.10028,4.47577 4.22934,4.53671 L5.3204,5.05203 C5.44946,5.113 5.5887,5.08942 5.63121,4.99939 C5.67372,4.9094 5.603485,4.78687 5.47443,4.72592" id="Shape" fill="#999999"></path>
                                <path d="M1.77042,2.58694 L0.67935,2.07162 C0.55029,2.01065 0.41106,2.03424 0.368546,2.12427 C0.326035,2.21426 0.39627,2.3368 0.52533,2.39774 L1.61639,2.91306 C1.74545,2.97403 1.88469,2.95044 1.9272,2.86041 C1.96971,2.77042 1.899475,2.64789 1.77042,2.58694" id="Shape" fill="#4C4C4C"></path>
                                <path d="M4.5621,5.7796 L3.95914,4.73514 C3.88782,4.6116 3.74428,4.56076 3.63875,4.62167 C3.53322,4.68262 3.50546,4.8323 3.57678,4.95587 L4.17975,6.00034 C4.25107,6.12387 4.39461,6.17471 4.50014,6.1138 C4.60567,6.05286 4.63342,5.90317 4.5621,5.7796" id="Shape" fill="#999999"></path>
                                <path d="M2.42412,2.0756 L1.82115,1.03113 C1.74983,0.9076 1.60629,0.85675 1.50076,0.91766 C1.39523,0.9786 1.36748,1.1283 1.4388,1.25186 L2.04176,2.29633 C2.11308,2.41986 2.25662,2.4707 2.36215,2.40979 C2.46768,2.34885 2.49544,2.19916 2.42412,2.0756" id="Shape" fill="#333333"></path>
                            </g>
                        </g>
                    </g>
                    <g id="sidebar-cart" mask="url(#mask-6)">
                        <g transform="translate(6.000000, 164.000000)">
                            <rect id="Rectangle-path" stroke="none" fill="#FFFFFF" fill-rule="evenodd" x="0.75" y="0.25" width="9" height="9"></rect>
                            <text id="Shopping-Cart-(8)" stroke="none" fill="#000000" fill-rule="evenodd" font-family="Helvetica" font-size="6" font-weight="normal">
                                <tspan x="11.75" y="7.25">Shopping Cart (8)</tspan>
                            </text>
                            <polygon id="Shape" stroke="none" fill="#FFFFFF" fill-rule="evenodd" points="7.714298 2.4289 7.714298 7.07172 2.78574 6.14316 2.78574 3.35745"></polygon>
                            <polygon id="Shape" stroke="#000000" stroke-width="0.5" fill="none" points="7.714298 2.4289 7.714298 7.07172 2.78574 6.14316 2.78574 3.35745"></polygon>
                        </g>
                    </g>
                    <text id="User-Selections" fill="#000000" mask="url(#mask-6)" font-family="Helvetica-Bold, Helvetica" font-size="9" font-weight="bold">
                        <tspan x="7" y="159.75">User Selections</tspan>
                    </text>
                    <g id="Catalog" mask="url(#mask-6)">
                        <g transform="translate(0.000000, 78.000000)">
                            <text id="Catalog" fill="#000000" font-family="Helvetica-Bold, Helvetica" font-size="9" font-weight="bold">
                                <tspan x="7" y="9.75">Catalog</tspan>
                            </text>
                            <text id="Tempos" fill="#000000" font-family="Helvetica" font-size="6" font-weight="normal">
                                <tspan x="8" y="65.75">Tempos</tspan>
                            </text>
                            <text id="Instruments" fill="#000000" font-family="Helvetica" font-size="6" font-weight="normal">
                                <tspan x="8" y="56.75">Instruments</tspan>
                            </text>
                            <rect id="Rectangle-path" fill="#999999" x="0" y="41.25" width="103.5" height="9"></rect>
                            <text id="Moods" fill="#FFFFFF" font-family="Helvetica-Bold, Helvetica" font-size="6" font-weight="bold">
                                <tspan x="8" y="47.75">Moods</tspan>
                            </text>
                            <text id="Genres" fill="#000000" font-family="Helvetica" font-size="6" font-weight="normal">
                                <tspan x="8" y="38.75">Genres</tspan>
                            </text>
                            <text id="Artists" fill="#000000" font-family="Helvetica" font-size="6" font-weight="normal">
                                <tspan x="8" y="29.75">Artists</tspan>
                            </text>
                            <text id="Labels" fill="#000000" font-family="Helvetica" font-size="6" font-weight="normal">
                                <tspan x="8" y="20.75">Labels</tspan>
                            </text>
                        </g>
                    </g>
                    <g id="Hilghlights" mask="url(#mask-6)" fill="#000000">
                        <g transform="translate(7.000000, 33.000000)">
                            <text id="Highlights" font-family="Helvetica-Bold, Helvetica" font-size="9" font-weight="bold">
                                <tspan x="0" y="9.75">Highlights</tspan>
                            </text>
                            <text id="Staff-Picks" font-family="Helvetica" font-size="6" font-weight="normal">
                                <tspan x="1" y="38.75">Staff Picks</tspan>
                            </text>
                            <text id="Featured-Artists" font-family="Helvetica" font-size="6" font-weight="normal">
                                <tspan x="1" y="29.75">Featured Artists</tspan>
                            </text>
                            <text id="New-Additions" font-family="Helvetica" font-size="6" font-weight="normal">
                                <tspan x="1" y="20.75">New Additions</tspan>
                            </text>
                        </g>
                    </g>
                    <g id="quick-search" mask="url(#mask-6)">
                        <g transform="translate(4.000000, 4.000000)">
                            <path d="M7.25,0.5 L74.75,0.5 C78.47792,0.5 81.5,3.52208 81.5,7.25 L81.5,7.25 C81.5,10.97792 78.47792,14 74.75,14 L7.25,14 C3.52208,14 0.5,10.97792 0.5,7.25 L0.5,7.25 L0.5,7.25 C0.5,3.52208 3.52208,0.5 7.25,0.5 L7.25,0.5 Z" id="Shape" stroke="none" fill="#FFFFFF" fill-rule="evenodd"></path>
                            <path d="M7.25,0.5 L74.75,0.5 C78.47792,0.5 81.5,3.52208 81.5,7.25 L81.5,7.25 C81.5,10.97792 78.47792,14 74.75,14 L7.25,14 C3.52208,14 0.5,10.97792 0.5,7.25 L0.5,7.25 L0.5,7.25 C0.5,3.52208 3.52208,0.5 7.25,0.5 L7.25,0.5 Z" id="Shape" stroke="#999999" stroke-width="0.5" fill="none"></path>
                            <text id="Quick-Search" stroke="none" fill="#999999" fill-rule="evenodd" font-family="Helvetica-Oblique, Helvetica" font-size="6" font-style="italic" font-weight="normal">
                                <tspan x="5.5" y="9.5">Quick Search</tspan>
                            </text>
                            <circle id="Oval" stroke="none" fill="#FFFFFF" fill-rule="evenodd" cx="89.09678" cy="6.09679" r="2.3667793"></circle>
                            <circle id="Oval" stroke="#000000" stroke-width="1" fill="none" cx="89.09678" cy="6.09679" r="2.3667793"></circle>
                            <path d="M92.495,9.75 L91.049706,8.19625" id="Shape" stroke="#000000" stroke-width="1.5" fill="none"></path>
                            <polygon id="Shape" stroke="none" fill="#4C4C4C" fill-rule="evenodd" points="77.00016 6.06339 75.078384 9.00016 73.15661 6.06339"></polygon>
                        </g>
                    </g>
                </g>
            </g>
        </g>
    </g>
</svg>