<?xml version="1.0" encoding="UTF-8"?>
<svg width="468px" height="388px" viewBox="0 0 468 388" version="1.1" xmlns="http://www.w3.org/2000/svg" xmlns:xlink="http://www.w3.org/1999/xlink">
    <!-- Generator: Sketch 40.3 (33839) - http://www.bohemiancoding.com/sketch -->
    <title>fpm_ux-search-1</title>
    <desc>Created with Sketch.</desc>
    <defs>
        <filter x="-50%" y="-50%" width="200%" height="200%" filterUnits="objectBoundingBox" id="filter-1">
            <feOffset dx="0" dy="2" in="SourceAlpha" result="shadowOffsetOuter1"></feOffset>
            <feGaussianBlur stdDeviation="2" in="shadowOffsetOuter1" result="shadowBlurOuter1"></feGaussianBlur>
            <feColorMatrix values="0 0 0 0 0   0 0 0 0 0   0 0 0 0 0  0 0 0 0.5 0" type="matrix" in="shadowBlurOuter1" result="shadowMatrixOuter1"></feColorMatrix>
            <feMerge>
                <feMergeNode in="shadowMatrixOuter1"></feMergeNode>
                <feMergeNode in="SourceGraphic"></feMergeNode>
            </feMerge>
        </filter>
        <!-- 
<filter x="-50%" y="-50%" width="200%" height="200%" filterUnits="objectBoundingBox" id="filter-2">
            <feOffset dx="0" dy="2" in="SourceAlpha" result="shadowOffsetOuter1"></feOffset>
            <feGaussianBlur stdDeviation="2" in="shadowOffsetOuter1" result="shadowBlurOuter1"></feGaussianBlur>
            <feColorMatrix values="0 0 0 0 0   0 0 0 0 0   0 0 0 0 0  0 0 0 0.5 0" type="matrix" in="shadowBlurOuter1" result="shadowMatrixOuter1"></feColorMatrix>
            <feMerge>
                <feMergeNode in="shadowMatrixOuter1"></feMergeNode>
                <feMergeNode in="SourceGraphic"></feMergeNode>
            </feMerge>
        </filter>
 -->
        <rect id="path-3" x="20.5" y="0" width="446.5" height="118"></rect>
        <!-- 
<filter x="-50%" y="-50%" width="200%" height="200%" filterUnits="objectBoundingBox" id="filter-4">
            <feMorphology radius="0.5" operator="dilate" in="SourceAlpha" result="shadowSpreadOuter1"></feMorphology>
            <feOffset dx="0" dy="2" in="shadowSpreadOuter1" result="shadowOffsetOuter1"></feOffset>
            <feMorphology radius="1" operator="erode" in="SourceAlpha" result="shadowInner"></feMorphology>
            <feOffset dx="0" dy="2" in="shadowInner" result="shadowInner"></feOffset>
            <feComposite in="shadowOffsetOuter1" in2="shadowInner" operator="out" result="shadowOffsetOuter1"></feComposite>
            <feGaussianBlur stdDeviation="2" in="shadowOffsetOuter1" result="shadowBlurOuter1"></feGaussianBlur>
            <feColorMatrix values="0 0 0 0 0   0 0 0 0 0   0 0 0 0 0  0 0 0 0.5 0" type="matrix" in="shadowBlurOuter1"></feColorMatrix>
        </filter>
 -->
    </defs>
    <g id="Search" stroke="none" stroke-width="1" fill="none" fill-rule="evenodd">
        <g id="fpm_ux-search-1">
            <g id="search-submit" transform="translate(21.000000, 180.000000)">
                <g id="dropdown-2" filter="url(#filter-1)" transform="translate(135.000000, 0.000000)">
                    <path d="M3,0.5 L55.5,0.5 C57.15686,0.5 58.5,1.84314 58.5,3.5 L58.5,11 C58.5,12.65686 57.15686,14 55.5,14 L3,14 C1.34314,14 0,12.65686 0,11 L0,11 L0,3.5 C0,1.84314 1.34314,0.5 3,0.5 L3,0.5 Z" id="Shape" fill="#FFFFFF"></path>
                    <path d="M3,0.5 L55.5,0.5 C57.15686,0.5 58.5,1.84314 58.5,3.5 L58.5,11 C58.5,12.65686 57.15686,14 55.5,14 L3,14 C1.34314,14 0,12.65686 0,11 L0,11 L0,3.5 C0,1.84314 1.34314,0.5 3,0.5 L3,0.5 Z" id="Shape" stroke="#000000" stroke-width="0.5"></path>
                    <g id="Group" transform="translate(5.000000, 3.500000)" font-size="6" font-family="Helvetica-Bold, Helvetica" fill="#000000" font-weight="bold">
                        <text id="Any">
                            <tspan x="0" y="6">Any</tspan>
                        </text>
                    </g>
                    <polygon id="Shape" fill="#000000" points="53.7191 5.78139 51.79736 8.71815 49.8756 5.78139"></polygon>
                    <polygon id="Shape" stroke="#FFFFFF" stroke-width="0.25" points="53.7191 5.78139 51.79736 8.71815 49.8756 5.78139"></polygon>
                    <path d="M45,0.5 L45,14" id="Shape" stroke="#000000" stroke-width="0.5"></path>
                    <path d="M3,14 L55.5,14 C57.15686,14 58.5,15.34314 58.5,17 L58.5,33.5 C58.5,35.15686 57.15686,36.5 55.5,36.5 L3,36.5 C1.34314,36.5 0,35.15686 0,33.5 L0,33.5 L0,17 C0,15.34314 1.34314,14 3,14 L3,14 Z" id="Shape" fill="#FFFFFF"></path>
                    <path d="M3,14 L55.5,14 C57.15686,14 58.5,15.34314 58.5,17 L58.5,33.5 C58.5,35.15686 57.15686,36.5 55.5,36.5 L3,36.5 C1.34314,36.5 0,35.15686 0,33.5 L0,33.5 L0,17 C0,15.34314 1.34314,14 3,14 L3,14 Z" id="Shape" stroke="#000000" stroke-width="0.5"></path>
                    <rect id="Rectangle-path" fill="#000000" x="0" y="25.25" width="58.5" height="9"></rect>
                    <g id="Group" transform="translate(5.000000, 25.750000)" font-size="6" font-family="Helvetica-Bold, Helvetica" fill="#FFFFFF" font-weight="bold">
                        <text id="Any">
                            <tspan x="0" y="6">Any</tspan>
                        </text>
                    </g>
                    <g id="Group" transform="translate(5.000000, 16.750000)" font-size="6" font-family="Helvetica" fill="#000000" font-weight="normal">
                        <text id="All">
                            <tspan x="0" y="6">All</tspan>
                        </text>
                    </g>
                </g>
                <text id="that-match" fill="#000000" font-family="Helvetica-Bold, Helvetica" font-size="6" font-weight="bold">
                    <tspan x="99.861" y="9.5">that match</tspan>
                </text>
                <g id="dropdown-1" transform="translate(36.000000, 0.000000)">
                    <g id="Group-2">
                        <path d="M3,0.5 L55.5,0.5 C57.15686,0.5 58.5,1.84314 58.5,3.5 L58.5,11 C58.5,12.65686 57.15686,14 55.5,14 L3,14 C1.34314,14 0,12.65686 0,11 L0,11 L0,3.5 C0,1.84314 1.34314,0.5 3,0.5 L3,0.5 Z" id="Shape" fill="#FFFFFF"></path>
                        <path d="M3,0.5 L55.5,0.5 C57.15686,0.5 58.5,1.84314 58.5,3.5 L58.5,11 C58.5,12.65686 57.15686,14 55.5,14 L3,14 C1.34314,14 0,12.65686 0,11 L0,11 L0,3.5 C0,1.84314 1.34314,0.5 3,0.5 L3,0.5 Z" id="Shape" stroke="#000000" stroke-width="0.5"></path>
                        <text id="Songs" fill="#000000" font-family="Helvetica-Bold, Helvetica" font-size="6" font-weight="bold">
                            <tspan x="5" y="9.5">Songs</tspan>
                        </text>
                        <polygon id="Shape" fill="#000000" points="53.7191 5.78139 51.79736 8.71815 49.8756 5.78139"></polygon>
                        <polygon id="Shape" stroke="#FFFFFF" stroke-width="0.25" points="53.7191 5.78139 51.79736 8.71815 49.8756 5.78139"></polygon>
                        <path d="M45,0.5 L45,14" id="Shape" stroke="#000000" stroke-width="0.5"></path>
                    </g>
                    <g id="overlay" filter="url(#filter-1)" transform="translate(0.000000, 14.000000)">
                        <path d="M3,0 L55.5,0 C57.15686,0 58.5,1.34314 58.5,3 L58.5,28.5 C58.5,30.15686 57.15686,31.5 55.5,31.5 L3,31.5 C1.34314,31.5 0,30.15686 0,28.5 L0,28.5 L0,3 C0,1.34314 1.34314,0 3,0 L3,0 Z" id="Shape" fill="#FFFFFF"></path>
                        <path d="M3,0 L55.5,0 C57.15686,0 58.5,1.34314 58.5,3 L58.5,28.5 C58.5,30.15686 57.15686,31.5 55.5,31.5 L3,31.5 C1.34314,31.5 0,30.15686 0,28.5 L0,28.5 L0,3 C0,1.34314 1.34314,0 3,0 L3,0 Z" id="Shape" stroke="#000000" stroke-width="0.5"></path>
                        <rect id="Rectangle-path" fill="#000000" x="0" y="11.25" width="58.5" height="9"></rect>
                        <text id="Albums" fill="#FFFFFF" font-family="Helvetica-Bold, Helvetica" font-size="6" font-weight="bold">
                            <tspan x="5" y="17.75">Albums</tspan>
                        </text>
                        <text id="Songs-&amp;-Albums" fill="#000000" font-family="Helvetica" font-size="6" font-weight="normal">
                            <tspan x="5" y="26.75">Songs &amp; Albums</tspan>
                        </text>
                        <text id="Songs" fill="#000000" font-family="Helvetica" font-size="6" font-weight="normal">
                            <tspan x="5" y="8.75">Songs</tspan>
                        </text>
                    </g>
                </g>
                <text id="Search-for" fill="#000000" font-family="Helvetica-Bold, Helvetica" font-size="6" font-weight="bold">
                    <tspan x="0.71399975" y="9.5">Search for</tspan>
                </text>
            </g>
            <g id="search-submit-desc" transform="translate(57.000000, 139.000000)" font-size="6" font-family="Helvetica-Bold, Helvetica" fill="#000000" font-weight="bold">
                <text id="The-first-dropdown-selects-the-kind-of-item-whose">
                    <tspan x="0" y="6">The first dropdown selects the kind of item whose</tspan>
                </text>
                <text id="properties-will-be-checked-against-the-constraints.">
                    <tspan x="0" y="13">properties will be checked against the constraints.</tspan>
                </text>
                <text id="The-second-dropdown-will-select-the-boolean-oper-">
                    <tspan x="0" y="24">The second dropdown will select the boolean oper-</tspan>
                </text>
                <text id="ation-to-chain-the-constraints.">
                    <tspan x="0" y="31">ation to chain the constraints.</tspan>
                </text>
            </g>
            <g id="search-connector" transform="translate(0.000000, 50.000000)" stroke-width="0.5" stroke="#000000">
                <polyline id="Shape" points="14.25 36 9.75 36 9.75 0 14.25 0"></polyline>
                <path d="M9.75,18 L3.75,18 C2.093147,18 0.75,19.34314 0.75,21 L0.75,134.25 C0.75,135.90686 2.093147,137.25 3.75,137.25 L8.3,137.25" id="connector"></path>
            </g>
            <g id="panel-border+shadow">
                <use fill="black" fill-opacity="1" filter="url(#filter-1)" xlink:href="#path-3"></use>
                <use stroke="#000000" stroke-width="1" xlink:href="#path-3"></use>
            </g>
            <g id="search-panel" transform="translate(21.000000, 0.000000)">
                <rect id="Rectangle-path" stroke="#000000" stroke-width="0.5" fill="#FFFFFF" fill-rule="evenodd" x="0" y="0.5" width="445.5" height="117"></rect>
                <text id="Search-for" fill="#000000" fill-rule="evenodd" font-family="Helvetica-Bold, Helvetica" font-size="6" font-weight="bold">
                    <tspan x="29.2139997" y="36.5">Search for</tspan>
                </text>
                <text id="that-match" fill="#000000" fill-rule="evenodd" font-family="Helvetica-Bold, Helvetica" font-size="6" font-weight="bold">
                    <tspan x="126.861" y="36.5">that match</tspan>
                </text>
                <path d="M66,27.5 L118.5,27.5 C120.15686,27.5 121.5,28.84314 121.5,30.5 L121.5,38 C121.5,39.65686 120.15686,41 118.5,41 L66,41 C64.34315,41 63,39.65686 63,38 L63,38 L63,30.5 C63,28.84314 64.34315,27.5 66,27.5 L66,27.5 Z" id="Shape" fill="#FFFFFF" fill-rule="evenodd"></path>
                <path d="M66,27.5 L118.5,27.5 C120.15686,27.5 121.5,28.84314 121.5,30.5 L121.5,38 C121.5,39.65686 120.15686,41 118.5,41 L66,41 C64.34315,41 63,39.65686 63,38 L63,38 L63,30.5 C63,28.84314 64.34315,27.5 66,27.5 L66,27.5 Z" id="Shape" stroke="#000000" stroke-width="0.5"></path>
                <text id="Songs" fill="#000000" fill-rule="evenodd" font-family="Helvetica-Bold, Helvetica" font-size="6" font-weight="bold">
                    <tspan x="68" y="36.5">Songs</tspan>
                </text>
                <polygon id="Shape" fill="#000000" fill-rule="evenodd" points="116.71915 32.78139 114.79738 35.718155 112.87561 32.78139"></polygon>
                <polygon id="Shape" stroke="#FFFFFF" stroke-width="0.25" points="116.71915 32.78139 114.79738 35.718155 112.87561 32.78139"></polygon>
                <path d="M108,27.5 L108,41" id="Shape" stroke="#000000" stroke-width="0.5"></path>
                <path d="M165,27.5 L217.5,27.5 C219.15686,27.5 220.5,28.84314 220.5,30.5 L220.5,38 C220.5,39.65686 219.15686,41 217.5,41 L165,41 C163.34314,41 162,39.65686 162,38 L162,38 L162,30.5 C162,28.84314 163.34314,27.5 165,27.5 L165,27.5 Z" id="Shape" fill="#FFFFFF" fill-rule="evenodd"></path>
                <path d="M165,27.5 L217.5,27.5 C219.15686,27.5 220.5,28.84314 220.5,30.5 L220.5,38 C220.5,39.65686 219.15686,41 217.5,41 L165,41 C163.34314,41 162,39.65686 162,38 L162,38 L162,30.5 C162,28.84314 163.34314,27.5 165,27.5 L165,27.5 Z" id="Shape" stroke="#000000" stroke-width="0.5"></path>
                <text id="Any" fill="#000000" fill-rule="evenodd" font-family="Helvetica-Bold, Helvetica" font-size="6" font-weight="bold">
                    <tspan x="167" y="36.5">Any</tspan>
                </text>
                <polygon id="Shape" fill="#000000" fill-rule="evenodd" points="215.71918 32.78139 213.7974 35.718155 211.87561 32.78139"></polygon>
                <polygon id="Shape" stroke="#FFFFFF" stroke-width="0.25" points="215.71918 32.78139 213.7974 35.718155 211.87561 32.78139"></polygon>
                <path d="M207,27.5 L207,41" id="Shape" stroke="#000000" stroke-width="0.5"></path>
                <text id="of-these-constraints:" fill="#000000" fill-rule="evenodd" font-family="Helvetica-Bold, Helvetica" font-size="6" font-weight="bold">
                    <tspan x="225.960001" y="36.5">of these constraints:</tspan>
                </text>
                <rect id="Rectangle-path" fill="#E6E6E6" fill-rule="evenodd" x="63" y="45.5" width="378" height="22.5"></rect>
                <rect id="Rectangle-path" stroke="#000000" stroke-width="0.25" x="63" y="45.5" width="378" height="22.5"></rect>
                <path d="M70.5,50 L123,50 C124.65686,50 126,51.34314 126,53 L126,60.5 C126,62.15686 124.65686,63.5 123,63.5 L70.5,63.5 C68.84315,63.5 67.5,62.15686 67.5,60.5 L67.5,60.5 L67.5,53 C67.5,51.34314 68.84315,50 70.5,50 L70.5,50 Z" id="Shape" fill="#FFFFFF" fill-rule="evenodd"></path>
                <path d="M70.5,50 L123,50 C124.65686,50 126,51.34314 126,53 L126,60.5 C126,62.15686 124.65686,63.5 123,63.5 L70.5,63.5 C68.84315,63.5 67.5,62.15686 67.5,60.5 L67.5,60.5 L67.5,53 C67.5,51.34314 68.84315,50 70.5,50 L70.5,50 Z" id="Shape" stroke="#000000" stroke-width="0.5"></path>
                <text id="Has" fill="#000000" fill-rule="evenodd" font-family="Helvetica-Bold, Helvetica" font-size="6" font-weight="bold">
                    <tspan x="72.5" y="59">Has</tspan>
                </text>
                <polygon id="Shape" fill="#000000" fill-rule="evenodd" points="121.21915 55.28139 119.29738 58.21815 117.37561 55.28139"></polygon>
                <polygon id="Shape" stroke="#FFFFFF" stroke-width="0.25" points="121.21915 55.28139 119.29738 58.21815 117.37561 55.28139"></polygon>
                <path d="M112.5,50 L112.5,63.5" id="Shape" stroke="#000000" stroke-width="0.5"></path>
                <path d="M133.5,50 L186,50 C187.65686,50 189,51.34314 189,53 L189,60.5 C189,62.15686 187.65686,63.5 186,63.5 L133.5,63.5 C131.84314,63.5 130.5,62.15686 130.5,60.5 L130.5,60.5 L130.5,53 C130.5,51.34314 131.84314,50 133.5,50 L133.5,50 Z" id="Shape" fill="#FFFFFF" fill-rule="evenodd"></path>
                <path d="M133.5,50 L186,50 C187.65686,50 189,51.34314 189,53 L189,60.5 C189,62.15686 187.65686,63.5 186,63.5 L133.5,63.5 C131.84314,63.5 130.5,62.15686 130.5,60.5 L130.5,60.5 L130.5,53 C130.5,51.34314 131.84314,50 133.5,50 L133.5,50 Z" id="Shape" stroke="#000000" stroke-width="0.5"></path>
                <text id="Mood" fill="#000000" fill-rule="evenodd" font-family="Helvetica-Bold, Helvetica" font-size="6" font-weight="bold">
                    <tspan x="135.5" y="59">Mood</tspan>
                </text>
                <polygon id="Shape" fill="#000000" fill-rule="evenodd" points="184.21915 55.28139 182.29738 58.21815 180.37561 55.28139"></polygon>
                <polygon id="Shape" stroke="#FFFFFF" stroke-width="0.25" points="184.21915 55.28139 182.29738 58.21815 180.37561 55.28139"></polygon>
                <path d="M175.5,50 L175.5,63.5" id="Shape" stroke="#000000" stroke-width="0.5"></path>
                <path d="M200.25,50 L429.75,50 C433.47794,50 436.5,53.02208 436.5,56.75 L436.5,56.75 C436.5,60.47792 433.47794,63.5 429.75,63.5 L200.25,63.5 C196.52208,63.5 193.5,60.47792 193.5,56.75 L193.5,56.75 L193.5,56.75 C193.5,53.02208 196.52208,50 200.25,50 L200.25,50 Z" id="Shape" fill="#FFFFFF" fill-rule="evenodd"></path>
                <path d="M200.25,50 L429.75,50 C433.47794,50 436.5,53.02208 436.5,56.75 L436.5,56.75 C436.5,60.47792 433.47794,63.5 429.75,63.5 L200.25,63.5 C196.52208,63.5 193.5,60.47792 193.5,56.75 L193.5,56.75 L193.5,56.75 C193.5,53.02208 196.52208,50 200.25,50 L200.25,50 Z" id="Shape" stroke="#999999" stroke-width="0.5"></path>
                <text id="Terror-+-Suspense,-Terror-+-Climatic" fill="#000000" fill-rule="evenodd" font-family="Helvetica" font-size="6" font-weight="normal">
                    <tspan x="201.5" y="59">Terror + Suspense, Terror + Climatic</tspan>
                </text>
                <path d="M390,99.5 L438,99.5 C439.65686,99.5 441,100.84314 441,102.5 L441,110 C441,111.65686 439.65686,113 438,113 L390,113 C388.34314,113 387,111.65686 387,110 L387,110 L387,102.5 C387,100.84314 388.34314,99.5 390,99.5 L390,99.5 Z" id="Shape" stroke="#000000" stroke-width="1"></path>
                <text id="Get-results" fill="#000000" fill-rule="evenodd" font-family="Helvetica-Bold, Helvetica" font-size="6" font-weight="bold">
                    <tspan x="392" y="108.5">Get results</tspan>
                </text>
                <circle id="Oval" fill="#FFFFFF" fill-rule="evenodd" cx="430.59674" cy="105.84677" r="2.3667812"></circle>
                <circle id="Oval" stroke="#000000" stroke-width="1" cx="430.59674" cy="105.84677" r="2.3667812"></circle>
                <path d="M433.995,109.5 L432.54968,107.94624" id="Shape" stroke="#000000" stroke-width="1.5"></path>
                <g id="remove-rules" stroke-width="1" fill-rule="evenodd" transform="translate(4.000000, 99.000000)">
                    <path d="M3.5,0.5 L69.5,0.5 C71.15686,0.5 72.5,1.84314 72.5,3.5 L72.5,11 C72.5,12.65686 71.15686,14 69.5,14 L3.5,14 C1.843147,14 0.5,12.65686 0.5,11 L0.5,11 L0.5,3.5 C0.5,1.84314 1.843147,0.5 3.5,0.5 L3.5,0.5 Z" id="Shape" fill="#FFFFFF"></path>
                    <path d="M3.5,0.5 L69.5,0.5 C71.15686,0.5 72.5,1.84314 72.5,3.5 L72.5,11 C72.5,12.65686 71.15686,14 69.5,14 L3.5,14 C1.843147,14 0.5,12.65686 0.5,11 L0.5,11 L0.5,3.5 C0.5,1.84314 1.843147,0.5 3.5,0.5 L3.5,0.5 Z" id="Shape" stroke="#000000" stroke-width="0.5"></path>
                    <text id="Remove-all-constraints" fill="#000000" font-family="Helvetica-Bold, Helvetica" font-size="6" font-weight="bold">
                        <tspan x="3.65527344" y="9.5">Remove all constraints</tspan>
                    </text>
                </g>
                <rect id="Rectangle-path" fill="#E6E6E6" fill-rule="evenodd" x="63" y="68" width="378" height="22.5"></rect>
                <rect id="Rectangle-path" stroke="#000000" stroke-width="0.25" x="63" y="68" width="378" height="22.5"></rect>
                <g id="dd1-disabled" stroke-width="1" fill-rule="evenodd" transform="translate(67.000000, 72.000000)">
                    <path d="M3.5,0.5 L56,0.5 C57.65686,0.5 59,1.84314 59,3.5 L59,11 C59,12.65686 57.65686,14 56,14 L3.5,14 C1.84315,14 0.5,12.65686 0.5,11 L0.5,11 L0.5,3.5 C0.5,1.84314 1.84315,0.5 3.5,0.5 L3.5,0.5 Z" id="Shape" fill="#E6E6E6"></path>
                    <path d="M3.5,0.5 L56,0.5 C57.65686,0.5 59,1.84314 59,3.5 L59,11 C59,12.65686 57.65686,14 56,14 L3.5,14 C1.84315,14 0.5,12.65686 0.5,11 L0.5,11 L0.5,3.5 C0.5,1.84314 1.84315,0.5 3.5,0.5 L3.5,0.5 Z" id="Shape" stroke="#999999" stroke-width="0.5"></path>
                    <polygon id="Shape" fill="#999999" points="54.21915 5.78139 52.29738 8.71815 50.37561 5.78139"></polygon>
                    <path d="M45.5,0.5 L45.5,14" id="Shape" stroke="#999999" stroke-width="0.5"></path>
                </g>
                <g id="dd2-disabled" stroke-width="1" fill-rule="evenodd" transform="translate(130.000000, 72.000000)">
                    <path d="M3.5,0.5 L56,0.5 C57.65686,0.5 59,1.84314 59,3.5 L59,11 C59,12.65686 57.65686,14 56,14 L3.5,14 C1.84314,14 0.5,12.65686 0.5,11 L0.5,11 L0.5,3.5 C0.5,1.84314 1.84314,0.5 3.5,0.5 L3.5,0.5 Z" id="Shape" fill="#E6E6E6"></path>
                    <path d="M3.5,0.5 L56,0.5 C57.65686,0.5 59,1.84314 59,3.5 L59,11 C59,12.65686 57.65686,14 56,14 L3.5,14 C1.84314,14 0.5,12.65686 0.5,11 L0.5,11 L0.5,3.5 C0.5,1.84314 1.84314,0.5 3.5,0.5 L3.5,0.5 Z" id="Shape" stroke="#999999" stroke-width="0.5"></path>
                    <polygon id="Shape" fill="#999999" points="54.21915 5.78139 52.29738 8.71815 50.37561 5.78139"></polygon>
                    <path d="M45.5,0.5 L45.5,14" id="Shape" stroke="#999999" stroke-width="0.5"></path>
                </g>
                <g id="freetext-field" stroke-width="1" fill-rule="evenodd" transform="translate(193.000000, 72.000000)">
                    <path d="M7.25,0.5 L236.75,0.5 C240.47794,0.5 243.5,3.52208 243.5,7.25 L243.5,7.25 C243.5,10.97792 240.47794,14 236.75,14 L7.25,14 C3.52208,14 0.5,10.97792 0.5,7.25 L0.5,7.25 L0.5,7.25 C0.5,3.52208 3.52208,0.5 7.25,0.5 L7.25,0.5 Z" id="Shape" fill="#E6E6E6"></path>
                    <path d="M7.25,0.5 L236.75,0.5 C240.47794,0.5 243.5,3.52208 243.5,7.25 L243.5,7.25 C243.5,10.97792 240.47794,14 236.75,14 L7.25,14 C3.52208,14 0.5,10.97792 0.5,7.25 L0.5,7.25 L0.5,7.25 C0.5,3.52208 3.52208,0.5 7.25,0.5 L7.25,0.5 Z" id="Shape" stroke="#999999" stroke-width="0.5"></path>
                </g>
                <g id="add-btn" stroke-width="1" fill-rule="evenodd" transform="translate(9.000000, 72.000000)">
                    <path d="M3,0.5 L42,0.5 C43.65685,0.5 45,1.84314 45,3.5 L45,11 C45,12.65686 43.65685,14 42,14 L3,14 C1.343147,14 0,12.65686 0,11 L0,11 L0,3.5 C0,1.84314 1.343147,0.5 3,0.5 L3,0.5 Z" id="Shape" fill="#FFFFFF"></path>
                    <path d="M3,0.5 L42,0.5 C43.65685,0.5 45,1.84314 45,3.5 L45,11 C45,12.65686 43.65685,14 42,14 L3,14 C1.343147,14 0,12.65686 0,11 L0,11 L0,3.5 C0,1.84314 1.343147,0.5 3,0.5 L3,0.5 Z" id="Shape" stroke="#000000" stroke-width="0.5"></path>
                    <text id="Add" fill="#000000" font-family="Helvetica-Bold, Helvetica" font-size="6" font-weight="bold">
                        <tspan x="28.666" y="9.5">Add</tspan>
                    </text>
                    <path d="M10.156998,7.25 L4.5,7.25" id="Shape" stroke="#000000"></path>
                    <path d="M7.328003,10.078 L7.328003,4.422" id="Shape" stroke="#000000"></path>
                </g>
                <g id="remove-btn" stroke-width="1" fill-rule="evenodd" transform="translate(9.000000, 50.000000)">
                    <path d="M3,0 L42,0 C43.65685,0 45,1.34314 45,3 L45,10.5 C45,12.15686 43.65685,13.5 42,13.5 L3,13.5 C1.343147,13.5 0,12.15686 0,10.5 L0,10.5 L0,3 C0,1.34314 1.343147,0 3,0 L3,0 Z" id="Shape" fill="#FFFFFF"></path>
                    <path d="M3,0 L42,0 C43.65685,0 45,1.34314 45,3 L45,10.5 C45,12.15686 43.65685,13.5 42,13.5 L3,13.5 C1.343147,13.5 0,12.15686 0,10.5 L0,10.5 L0,3 C0,1.34314 1.343147,0 3,0 L3,0 Z" id="Shape" stroke="#000000" stroke-width="0.5"></path>
                    <text id="Remove" fill="#000000" font-family="Helvetica-Bold, Helvetica" font-size="6" font-weight="bold">
                        <tspan x="17.212" y="9">Remove</tspan>
                    </text>
                    <path d="M10.156998,6.75 L4.5,6.75" id="Shape" stroke="#000000"></path>
                </g>
                <g id="limit-results" stroke-width="1" fill-rule="evenodd" transform="translate(263.000000, 99.000000)">
                    <text id="Limit-results-to" fill="#000000" font-family="Helvetica-Bold, Helvetica" font-size="6" font-weight="bold">
                        <tspan x="10.5" y="9.5">Limit results to</tspan>
                    </text>
                    <rect id="Rectangle-path" fill="#FFFFFF" x="0.081" y="3.331" width="7.838684" height="7.8387146"></rect>
                    <rect id="Rectangle-path" stroke="#000000" stroke-width="0.5" x="0.081" y="3.331" width="7.838684" height="7.8387146"></rect>
                    <text id="items" fill="#000000" font-family="Helvetica-Bold, Helvetica" font-size="6" font-weight="bold">
                        <tspan x="81" y="9.5">items</tspan>
                    </text>
                    <path d="M59.5,0.5 L76,0.5 C77.65686,0.5 79,1.84314 79,3.5 L79,11 C79,12.65686 77.65686,14 76,14 L59.5,14 C57.84314,14 56.5,12.65686 56.5,11 L56.5,11 L56.5,3.5 C56.5,1.84314 57.84314,0.5 59.5,0.5 L59.5,0.5 Z" id="Shape" fill="#FFFFFF"></path>
                    <path d="M59.5,0.5 L76,0.5 C77.65686,0.5 79,1.84314 79,3.5 L79,11 C79,12.65686 77.65686,14 76,14 L59.5,14 C57.84314,14 56.5,12.65686 56.5,11 L56.5,11 L56.5,3.5 C56.5,1.84314 57.84314,0.5 59.5,0.5 L59.5,0.5 Z" id="Shape" stroke="#999999" stroke-width="0.5"></path>
                    <text id="--" fill="#999999" font-family="Helvetica-Bold, Helvetica" font-size="6" font-weight="bold">
                        <tspan x="60.5" y="9.5">--</tspan>
                    </text>
                    <polygon id="Shape" fill="#999999" points="76.42218 8.03139 74.5004 10.96815 72.57861 8.03139"></polygon>
                    <polygon id="Shape" stroke="#FFFFFF" stroke-width="0.25" points="76.42218 8.03139 74.5004 10.96815 72.57861 8.03139"></polygon>
                    <path d="M70,0.5 L70,14" id="Shape" stroke="#999999" stroke-width="0.5"></path>
                    <polygon id="Shape" fill="#999999" points="72.57861 6.46815 74.5004 3.53139 76.42218 6.46815"></polygon>
                    <polygon id="Shape" stroke="#FFFFFF" stroke-width="0.25" points="72.57861 6.46815 74.5004 3.53139 76.42218 6.46815"></polygon>
                </g>
                <text id="Shuffle-results" fill="#000000" fill-rule="evenodd" font-family="Helvetica-Bold, Helvetica" font-size="6" font-weight="bold">
                    <tspan x="200" y="108.5">Shuffle results</tspan>
                </text>
                <rect id="Rectangle-path" fill="#FFFFFF" fill-rule="evenodd" x="189.581" y="102.331" width="7.8387146" height="7.8387146"></rect>
                <rect id="Rectangle-path" stroke="#000000" stroke-width="0.5" x="189.581" y="102.331" width="7.8387146" height="7.8387146"></rect>
                <rect id="Rectangle-path" fill="#E6E6E6" fill-rule="evenodd" x="146.25" y="5" width="294.75" height="13.5"></rect>
                <rect id="Rectangle-path" stroke="#FFFFFF" stroke-width="1" x="146.25" y="5" width="294.75" height="13.5"></rect>
                <polygon id="Shape" fill="#4C4C4C" fill-rule="evenodd" points="29.25 5.00284 29.25 18.50014 148.49936 18.49977 152.99899 11.75 148.4996 5.00003"></polygon>
                <polygon id="Shape" stroke="#FFFFFF" stroke-width="1" points="29.25 5.00284 29.25 18.50014 148.49936 18.49977 152.99899 11.75 148.4996 5.00003"></polygon>
                <text id="Editing-Search-&quot;Terror-+-Suspense...&quot;" fill="#FFFFFF" fill-rule="evenodd" font-family="Helvetica-Bold, Helvetica" font-size="6" font-weight="bold">
                    <tspan x="41.4749985" y="14.00011">Editing Search "Terror + Suspense..."</tspan>
                </text>
                <polygon id="Shape" fill="#7F7F7F" fill-rule="evenodd" points="4.5 5.00284 4.5 18.5 31.49971 18.49982 35.9998 11.74977 31.49971 5"></polygon>
                <polygon id="Shape" stroke="#FFFFFF" stroke-width="1" points="4.5 5.00284 4.5 18.5 31.49971 18.49982 35.9998 11.74977 31.49971 5"></polygon>
                <text id="Home" fill="#FFFFFF" fill-rule="evenodd" font-family="Helvetica-Bold, Helvetica" font-size="6" font-weight="bold">
                    <tspan x="11.5538009" y="14">Home</tspan>
                </text>
                <text id="Discard" fill="#000000" fill-rule="evenodd" font-family="Helvetica-Bold, Helvetica" font-size="6" font-weight="bold">
                    <tspan x="407.266" y="14">Discard</tspan>
                </text>
                <circle id="Oval" fill="#666666" fill-rule="evenodd" cx="434.25" cy="11.75" r="2.2499955"></circle>
                <circle id="Oval" stroke="#666666" stroke-width="2" cx="434.25" cy="11.75" r="2.2499955"></circle>
                <path d="M432.75,13.25 L435.75,10.25" id="Shape" stroke="#FFFFFF" stroke-width="1"></path>
                <path d="M432.75,10.25 L435.75,13.25" id="Shape" stroke="#FFFFFF" stroke-width="1"></path>
                <text id="Save" fill="#000000" fill-rule="evenodd" font-family="Helvetica-Bold, Helvetica" font-size="6" font-weight="bold">
                    <tspan x="375.658" y="14">Save</tspan>
                </text>
                <path d="M394.895113,8.00080978 C394.322288,8.00091839 394.000125,8.2914131 394,8.88489623 L394,15.0033584 C394.000125,15.5586172 394.289775,15.8493027 394.861837,15.8499279 L401.129289,15.8499279 C401.702295,15.8493027 401.992388,15.5730937 401.99279,15.0033584 L401.99279,8.88489623 C401.992388,8.3058896 401.702295,8.00091839 401.110987,8.00080978 C401.110987,8.00080978 394.893407,7.99898778 394.895113,8.00080978 L394.895113,8.00080978 L394.895113,8.00080978 Z" id="Fill-1" fill="#000000" fill-rule="evenodd"></path>
                <polyline id="Fill-3" fill="#FFFFFF" fill-rule="evenodd" points="400.157643 10.5160509 400.157643 13.9789931 396.625442 13.9789931 395.459133 12.8371845 398.147799 12.8371845 395.507383 10.2485416 396.360901 9.41012802 398.992998 11.9889842 398.992998 9.36934915 400.157643 10.5160509"></polyline>
            </g>
        </g>
    </g>
</svg>