<?xml version="1.0" encoding="utf-8"?>
<!DOCTYPE svg PUBLIC "-//W3C//DTD SVG 1.1//EN" "http://www.w3.org/Graphics/SVG/1.1/DTD/svg11.dtd">
<svg version="1.1" xmlns="http://www.w3.org/2000/svg" xmlns:xlink="http://www.w3.org/1999/xlink" viewport-fill="hsl(0,0%,100%)" viewport-fill-opacity="1">
	<!-- width="720" height="1600" viewBox="1 1 720 1600" -->
<defs>
	<style type="text/css"><![CDATA[
		.color-1.color-fill 	{ fill: 	hsl(240, 93%, 71%); }
		.color-1.color-stroke 	{ stroke: 	hsl(240, 93%, 71%); }
		.color-2.color-fill 	{ fill: 	hsl(  6, 93%, 71%); }
		.color-2.color-stroke 	{ stroke: 	hsl(  6, 93%, 71%); }
		.vguide {
			fill: hsl(6, 93%, 71%);
			fill-opacity: 0.8;
		}
		.hguide {
			stroke: hsl( 90, 75%, 35%);
			stroke-opacity: 0.7;
		}
		#content-guide-960 { 
			stroke-dasharray: 6,6;
			stroke-dashoffset: 3;
		}
		#content-guide-720 {
			stroke-dasharray: 2,2;
			stroke-dashoffset: 0;
		}
		.layout-guide {
			stroke: hsl(240, 93%, 71%);
		}
		
		@media screen and (min-width: 1024px) {
			.layout-guide {
				stroke: hsl(60, 93%, 71%);
			}
		}
	]]></style>

	<pattern id="Baseline" x="0" y="0" width="20" height="9" patternUnits="userSpaceOnUse">
		<rect x="0" y="0" width="1" height="100%" fill="hsl(336,93%,50%)" fill-opacity="0.25" />
		<rect x="0" y="0" width="100%" height="1" fill="hsl(276,93%,50%)" fill-opacity="0.50" />
	</pattern>
	<pattern id="Grid-240px" x="0" y="0" width="240" height="1" patternUnits="userSpaceOnUse">
		<!-- <line transform="translate(120 0)" x1="0.5" x2="0.5" y1="0" y2="100%" stroke="hsl(136,50%,60%)" stroke-opacity="0.4"/> -->
		<line transform="translate(80 0)" x1="0.5" x2="0.5" y1="0" y2="100%" stroke="hsl(336,50%,40%)" stroke-opacity="0.2"/>
		<line transform="translate(160 0)" x1="0.5" x2="0.5" y1="0" y2="100%" stroke="hsl(336,50%,40%)" stroke-opacity="0.2"/>
		<line transform="translate(0 0)" x1="0.5" x2="0.5" y1="0" y2="100%" stroke="hsl(236,50%,40%)" stroke-opacity="0.4"/>
	</pattern>
	<filter id="grayscale">
		<feColorMatrix type="matrix" values="0.2126 0.7152 0.0722 0 0 0.2126 0.7152 0.0722 0 0 0.2126 0.7152 0.0722 0 0 0 0 0 1 0" />
	</filter>
</defs>
<g transform="translate(-1 -1)" stroke="none" stroke-width="1">
	<rect fill="url(#Baseline)" x="0" y="0" width="100%" height="100%" opacity=".3" />
	<rect fill="url(#Grid-240px)" x="0" y="0" width="100%" height="100%"/>
	
	<rect class="vguide" width="1" height="100%" x="0" y="0" transform="translate(20 0)"/>
	<rect class="vguide" width="1" height="100%" x="100%" y="0" transform="translate(-20 0)"/>
	
	<g transform="translate(0,9)">
		<line id="top-guide" class="hguide" transform="translate(0, 54)" x1="0" x2="100%" y1="0.5" y2="0.5"/>
		<line id="content-guide-960" class="layout-guide" transform="translate(0,144)" x1="0" x2="100%" y1="0.5" y2="0.5"/>
		<line id="content-guide-720" class="layout-guide" transform="translate(0,216)" x1="0" x2="100%" y1="0.5" y2="0.5"/>
		<!-- 126, 135, 144, 162, 180, 198, 216 -->
	</g>
</g>
</svg>
