<?xml version="1.0" encoding="utf-8"?>
<!DOCTYPE svg PUBLIC "-//W3C//DTD SVG 1.1//EN" "http://www.w3.org/Graphics/SVG/1.1/DTD/svg11.dtd">
<svg version="1.1" id="debug-background" xmlns="http://www.w3.org/2000/svg" xmlns:xlink="http://www.w3.org/1999/xlink"
	 xml:space="preserve" enable-background="new 0 0 960 1600" x="0px" y="0px" width="960px" height="1600px" viewBox="0 0 960 1600" >
		 <!--
		 -->
<g>
	<defs>
		<rect id="hruler" x="0" y="0" width="100%" height="1" style="fill: hsla(6,93%,71%,0.8)"/>
		<rect id="vruler" x="0" y="0" width="1" height="100%" style="fill: hsla(241,93%,71%,0.5)"/>

		<pattern id="Baseline" x="0" y="0" width="20" height="9" patternUnits="userSpaceOnUse">
			<rect x="0" y="0" width="1" height="100%" fill="hsl(336,93%,50%)" opacity="0.2" />
			<rect x="0" y="0" width="100%" height="1" fill="hsl(276,93%,50%)" opacity="0.4" />
		</pattern>

<!--
		<pattern id="Grid9" x="0" y="0" width=".125" height="1">
			<line x1="0.5" x2="0.5" y1="0" y2="100%" stroke="hsl(216,50%,40%)" stroke-width="1" opacity="1"/>
		</pattern>
-->
		<pattern id="Grid12" x="0" y="0" width=".083333" height="1">
			<line x1="0.5" x2="0.5" y1="0" y2="100%" stroke="hsl(136,50%,40%)" stroke-width="1" opacity="1"/>
		</pattern>
	</defs>

	<symbol>
		<g id="symmetry-element">
			<use xlink:href="#vruler" transform="translate(20,0)"/>
			<use xlink:href="#vruler" transform="translate(220,0)"/>
			<use xlink:href="#vruler" transform="translate(260,0)"/>
			<use xlink:href="#vruler" transform="translate(460,0)"/>
		</g>
	</symbol>
	<symbol id="symmetry">
		<use xlink:href="#symmetry-element"/>
		<g transform="translate(961,0)">
			<g transform="scale(-1 1)">
				<use xlink:href="#symmetry-element"/>
			</g>
		</g>
	</symbol>

	<!-- <rect x="0" y="0" width="100%" height="100%" style="fill: hsla(6,93%,71%,0.1)"/> -->
	<rect fill="url(#Baseline)" x="0" y="0" width="100%" height="100%" opacity="0.5" />
	<rect fill="url(#Grid12)" x="0" y="0" width="100%" height="100%" opacity=".3" />
	<rect fill="url(#Grid9)" x="0" y="0" width="100%" height="100%" opacity=".3" />

	<use xlink:href="#symmetry" transform="translate(0,0)"/>
	<!-- <use xlink:href="#hruler" transform="translate(0,18)"/> -->
	<!-- <use xlink:href="#hruler" transform="translate(0,162)"/> -->

</g>
</svg>
