<?xml version="1.0" encoding="utf-8"?>
<!DOCTYPE svg PUBLIC "-//W3C//DTD SVG 1.1//EN" "http://www.w3.org/Graphics/SVG/1.1/DTD/svg11.dtd">
<svg version="1.1" id="debug-background" xmlns="http://www.w3.org/2000/svg" xmlns:xlink="http://www.w3.org/1999/xlink"
	 width="720" height="1600" viewBox="1 1 720 1600" >
	<defs>
		<rect id="hruler" x="0" y="0" width="100%" height="1" fill="hsl(241,93%,71%)"/>
		<rect id="vruler" x="0" y="0" width="1" height="100%" fill="hsl(6,93%,71%)"/>
		<rect id="cruler" x="0" y="0" width="1" height="100%" fill="hsl(6,93%,71%)"/>

		<pattern id="Baseline" x="0" y="0" width="20" height="9" patternUnits="userSpaceOnUse">
			<rect x="0" y="0" width="1" height="100%" fill="hsl(336,93%,50%)" fill-opacity="0.25" />
			<rect x="0" y="0" width="100%" height="1" fill="hsl(276,93%,50%)" fill-opacity="0.50" />
		</pattern>
		<pattern id="Leading" x="0" y="0" width="100%" height="24" patternUnits="userSpaceOnUse">
			<rect x="0" y="0" width="100%" height="1" fill="hsl(216,93%,50%)" fill-opacity="0.50" />
		</pattern>
		<pattern id="Grid3" x="0" y="0" width="..333333" height="1">
			<line x1="0.5" x2="0.5" y1="0" y2="100%" stroke="hsl(236,50%,40%)" stroke-width="1" stroke-opacity="1"/>
		</pattern>
		<pattern id="Grid6" x="0" y="0" width="..166666" height="1">
			<line x1="0.5" x2="0.5" y1="0" y2="100%" stroke="hsl(136,50%,40%)" stroke-width="1" stroke-opacity="1"/>
		</pattern>
		<pattern id="Grid9" x="0" y="0" width="..125" height="1">
			<line x1="0.5" x2="0.5" y1="0" y2="100%" stroke="hsl(216,50%,40%)" stroke-width="1" stroke-opacity="1"/>
		</pattern>
		<pattern id="Grid12" x="0" y="0" width="..083333" height="1">
			<line x1="0.5" x2="0.5" y1="0" y2="100%" stroke="hsl(136,50%,40%)" stroke-width="1" stroke-opacity="1"/>
		</pattern>
	</defs>
	<g>
		<rect fill="url(#Baseline)" x="0" y="0" width="100%" height="100%" opacity=".3" />
		<rect fill="url(#Grid3)" x="0" y="0" width="100%" height="100%" opacity=".3" />
		<rect fill="url(#Grid12)" x="0" y="0" width="100%" height="100%" opacity=".15" />

		<rect x="20" y="0" width="1" height="100%"  fill="hsl(  6, 93%, 71%)" fill-opacity="0.8"/>
		<rect x="700" y="0" width="1" height="100%"  fill="hsl(  6, 93%, 71%)" fill-opacity="0.8"/>
	</g>
	<g transform="translate(0,9)">
		<rect x="0"  y="54" width="100%" height="1"  fill="hsl( 90, 75%, 35%)" fill-opacity="0.7"/>
		<line transform="translate(0, 54)" x1="0" x2="100%" y1="0.5" y2="0.5" stroke-width="1" stroke="hsl( 90, 75%, 35%)" stroke-opacity="0.7"/>
		<line transform="translate(0,144)" x1="0" x2="100%" y1="0.5" y2="0.5" stroke-width="1" stroke="hsl(240, 93%, 71%)" stroke-opacity="1.0" stroke-dasharray="2,8" stroke-dashoffset="4"/>
		<line transform="translate(0,180)" x1="0" x2="100%" y1="0.5" y2="0.5" stroke-width="1" stroke="hsl(240, 93%, 71%)" stroke-opacity="1.0"/>
	</g>
</svg>
